<svg width="78" height="78" viewBox="0 0 78 78" fill="none" xmlns="http://www.w3.org/2000/svg">
<g filter="url(#filter0_d_53_164)">
<path fill-rule="evenodd" clip-rule="evenodd" d="M39 0C19.6625 0 4 16.0587 4 35.8853C4 51.7645 14.0187 65.1766 27.9312 69.9314C29.6812 70.2454 30.3375 69.1689 30.3375 68.2269C30.3375 67.3746 30.2938 64.5487 30.2938 61.5433C21.5 63.203 19.225 59.3453 18.525 57.3267C18.1312 56.295 16.425 53.1102 14.9375 52.2579C13.7125 51.5851 11.9625 49.9254 14.8938 49.8805C17.65 49.8357 19.6188 52.4822 20.275 53.5588C23.425 58.9864 28.4563 57.4613 30.4688 56.5193C30.775 54.1868 31.6937 52.6168 32.7 51.7197C24.9125 50.8225 16.775 47.7274 16.775 34.0013C16.775 30.0988 18.1313 26.8691 20.3625 24.3571C20.0125 23.46 18.7875 19.7818 20.7125 14.8475C20.7125 14.8475 23.6438 13.9055 30.3375 18.5258C33.1375 17.7184 36.1125 17.3146 39.0875 17.3146C42.0625 17.3146 45.0375 17.7184 47.8375 18.5258C54.5313 13.8607 57.4625 14.8475 57.4625 14.8475C59.3875 19.7818 58.1625 23.46 57.8125 24.3571C60.0438 26.8691 61.4 30.0539 61.4 34.0013C61.4 47.7723 53.2188 50.8225 45.4313 51.7197C46.7 52.8411 47.7938 54.9942 47.7938 58.3584C47.7938 63.1581 47.75 67.0158 47.75 68.2269C47.75 69.1689 48.4063 70.2903 50.1563 69.9314C57.1044 67.5265 63.142 62.9481 67.4193 56.8406C71.6966 50.7331 73.9981 43.4042 74 35.8853C74 16.0587 58.3375 0 39 0Z" fill="white"/>
</g>
<defs>
<filter id="filter0_d_53_164" x="0" y="0" width="78" height="78" filterUnits="userSpaceOnUse" color-interpolation-filters="sRGB">
<feFlood flood-opacity="0" result="BackgroundImageFix"/>
<feColorMatrix in="SourceAlpha" type="matrix" values="0 0 0 0 0 0 0 0 0 0 0 0 0 0 0 0 0 0 127 0" result="hardAlpha"/>
<feOffset dy="4"/>
<feGaussianBlur stdDeviation="2"/>
<feComposite in2="hardAlpha" operator="out"/>
<feColorMatrix type="matrix" values="0 0 0 0 0 0 0 0 0 0 0 0 0 0 0 0 0 0 0.25 0"/>
<feBlend mode="normal" in2="BackgroundImageFix" result="effect1_dropShadow_53_164"/>
<feBlend mode="normal" in="SourceGraphic" in2="effect1_dropShadow_53_164" result="shape"/>
</filter>
</defs>
</svg>
