<svg width="516" height="418" viewBox="0 0 516 418" fill="none" xmlns="http://www.w3.org/2000/svg">
<path d="M12.4466 414.439C7.30708 411.858 3.1827 407.14 1.04494 401.396C0.308546 399.418 -0.0167687 339.488 -0.00143635 208.635C0.0206776 26.369 0.0958612 18.5772 1.88518 14.6067C4.15193 9.57761 11.1963 3.29051 16.1031 1.91699C18.4395 1.26329 104.087 0.912455 259.063 0.923597C488.432 0.923597 498.584 1.02031 502.463 2.79794C507.636 5.17208 513.664 11.8961 515.101 16.8954C515.903 19.687 516.134 74.5763 515.919 211.506L515.621 402.228L512.83 406.554C511.295 408.934 508.107 412.147 505.745 413.694L501.452 416.506L259.528 416.766L17.604 417.026L12.4466 414.439ZM240.608 389.648C242.134 388.672 257.22 343.683 256.445 342.419C256.15 341.936 254.317 341.543 252.374 341.543C248.121 341.543 248.199 341.387 241.263 364.236C238.581 373.071 236.138 380.294 235.833 380.287C235.529 380.287 233.065 373.052 230.358 364.224C223.316 341.255 223.459 341.543 219.107 341.543C216.854 341.543 215.266 342.108 214.912 343.039C214.234 344.819 228.508 388.634 230.118 389.718C231.612 390.723 239.005 390.679 240.608 389.648ZM270.932 389.648C271.829 389.076 272.252 383.325 272.451 369.023L272.726 349.194L279.195 368.376C282.753 378.927 286.315 388.215 287.111 389.017C288.895 390.815 292.561 390.905 294.647 389.203C295.505 388.505 299.122 379.554 302.684 369.319C306.246 359.084 309.492 350.708 309.898 350.706C310.303 350.706 310.758 359.537 310.91 370.335L311.185 389.967H314.727H318.269V366.509V343.052H311.185H304.1L298.523 357.84C295.456 365.974 292.566 373.547 292.101 374.669C291.435 376.277 290.205 373.792 286.294 362.94C278.358 340.92 279.548 342.542 271.333 342.542C265.89 342.542 264.204 342.898 263.726 344.155C263.389 345.043 263.112 355.56 263.112 367.528C263.112 383.981 263.42 389.413 264.377 389.802C266.344 390.601 269.563 390.525 270.932 389.648ZM341.04 283.543V278.6L326.765 277.916C305.045 276.871 297.946 274.731 294.926 268.316C293.376 265.026 293.322 263.719 294.43 256.411C295.115 251.896 296.147 247.628 296.722 246.927C297.525 245.95 306.439 245.652 334.955 245.652C370.395 245.652 372.26 245.555 374.67 243.646C376.062 242.543 377.726 240.362 378.369 238.797C379.225 236.716 379.465 216.366 379.265 162.862L378.992 89.7705L376.537 87.1367C375.187 85.6889 372.455 84.048 370.465 83.4909C365.438 82.084 167.763 82.1137 162.73 83.4909C160.678 84.0629 157.832 85.9334 156.405 87.6427L153.809 90.7516V164.718V238.685L157.25 242.153L160.691 245.62H197.697C240.595 245.62 236.672 244.426 237.478 257.734C238.052 267.212 236.096 271.212 229.43 274.184C225.039 276.141 208.833 278.257 198.233 278.257H192.267V283.357V288.456H266.654H341.04V283.514V283.543ZM168.99 164.051V97.753L266.401 98.0128L363.811 98.273L364.072 164.311L364.332 230.35H266.661H168.99L168.99 164.051ZM266.144 191.849L266.141 170.686L253.241 163.298C246.146 159.235 237.95 154.521 235.028 152.823L229.714 149.736L229.751 170.92L229.788 192.104L247.711 202.497C257.569 208.214 265.749 212.919 265.888 212.951C266.027 212.951 266.146 203.489 266.144 191.849ZM291.547 202.068L308.654 192.144V171.471C308.654 160.101 308.401 150.798 308.093 150.798C307.784 150.798 299.822 155.273 290.398 160.742L273.264 170.686L273.249 191.339C273.242 202.698 273.505 211.992 273.836 211.992C274.168 211.992 282.137 207.526 291.547 202.068ZM287.409 154.113C296.845 148.643 304.574 143.871 304.586 143.508C304.615 142.671 271.099 123.006 269.564 122.957C267.588 122.883 233.74 143.026 234.528 143.795C235.676 144.917 268.567 163.94 269.465 164.002C269.898 164.002 277.973 159.581 287.409 154.113Z" fill="white"/>
</svg>
