<svg width="932" height="338" viewBox="0 0 932 338" fill="none" xmlns="http://www.w3.org/2000/svg">
<rect x="1" y="174" width="930" height="163" rx="13" fill="#141414" stroke="#292929" stroke-width="2"/>
<path fill-rule="evenodd" clip-rule="evenodd" d="M155 252C155 276.3 135.3 296 111 296C86.6995 296 67 276.3 67 252C67 227.7 86.6995 208 111 208C135.3 208 155 227.7 155 252ZM96.4644 247.969C92.0567 249.894 87.528 251.871 83.3868 254.152C81.2244 255.736 84.0984 256.856 86.7947 257.906C87.2233 258.073 87.6474 258.238 88.0461 258.403C88.378 258.505 88.7153 258.613 89.0572 258.722C92.056 259.677 95.3996 260.742 98.311 259.14C103.093 256.393 107.607 253.217 112.116 250.043C113.594 249.003 115.071 247.964 116.557 246.939C116.627 246.895 116.705 246.844 116.791 246.788C118.057 245.968 120.904 244.122 119.851 246.665C117.361 249.389 114.693 251.8 112.011 254.224C110.203 255.858 108.389 257.497 106.618 259.243C105.076 260.496 103.474 263.016 105.201 264.771C109.179 267.556 113.22 270.273 117.258 272.989C118.571 273.873 119.885 274.757 121.197 275.642C123.419 277.417 126.892 275.981 127.381 273.209C127.598 271.933 127.816 270.658 128.034 269.383C129.24 262.334 130.446 255.283 131.511 248.211C131.656 247.102 131.82 245.993 131.985 244.883C132.383 242.194 132.781 239.501 132.906 236.796C132.585 234.098 129.313 234.691 127.492 235.298C118.132 238.859 108.866 242.685 99.6368 246.578C98.5913 247.041 97.5314 247.504 96.4644 247.969Z" fill="white"/>
<path d="M267.545 222.848C261.763 220.156 255.659 218.246 249.389 217.167C248.531 218.727 247.755 220.332 247.064 221.975C240.385 220.951 233.594 220.951 226.915 221.975C226.224 220.332 225.447 218.727 224.59 217.167C218.316 218.255 212.208 220.169 206.421 222.862C194.931 240.151 191.816 257.011 193.374 273.631C200.102 278.688 207.634 282.533 215.64 285C217.443 282.534 219.038 279.918 220.409 277.179C217.805 276.19 215.292 274.97 212.899 273.533C213.529 273.068 214.145 272.59 214.74 272.125C221.704 275.456 229.305 277.183 237 277.183C244.695 277.183 252.296 275.456 259.259 272.125C259.862 272.625 260.478 273.103 261.101 273.533C258.703 274.972 256.185 276.195 253.577 277.186C254.946 279.924 256.541 282.538 258.346 285C266.359 282.543 273.896 278.699 280.626 273.638C282.453 254.364 277.505 237.659 267.545 222.848ZM222.382 263.41C218.042 263.41 214.457 259.404 214.457 254.477C214.457 249.549 217.917 245.508 222.368 245.508C226.818 245.508 230.376 249.549 230.3 254.477C230.224 259.404 226.805 263.41 222.382 263.41ZM251.618 263.41C247.271 263.41 243.7 259.404 243.7 254.477C243.7 249.549 247.161 245.508 251.618 245.508C256.076 245.508 259.606 249.549 259.529 254.477C259.453 259.404 256.041 263.41 251.618 263.41Z" fill="white"/>
<path d="M490.958 252C488.421 252 486.369 254.051 486.369 256.589C486.369 259.126 488.421 261.178 490.958 261.178C493.496 261.178 495.547 259.126 495.547 256.589C495.547 254.051 493.496 252 490.958 252Z" fill="white"/>
<path d="M501 272.029C502.782 272.029 508.774 271.813 511.905 268.682C512.391 268.25 512.391 267.494 511.852 266.955C511.42 266.469 510.664 266.469 510.178 266.955C508.18 268.952 503.915 269.654 500.946 269.654C497.977 269.654 493.766 269.006 491.768 267.009C491.336 266.523 490.58 266.523 490.094 267.009C489.609 267.44 489.609 268.196 490.094 268.682C493.226 271.813 499.218 272.029 501 272.029Z" fill="white"/>
<path d="M506.507 256.589C506.507 259.126 508.558 261.178 511.096 261.178C513.633 261.178 515.685 259.126 515.685 256.589C515.685 254.051 513.633 252 511.096 252C508.558 252 506.507 254.051 506.507 256.589Z" fill="white"/>
<path fill-rule="evenodd" clip-rule="evenodd" d="M545 252C545 276.301 525.301 296 501 296C476.699 296 457 276.301 457 252C457 227.699 476.699 208 501 208C525.301 208 545 227.699 545 252ZM523.945 245.575C527.508 245.575 530.369 248.437 530.369 252C530.369 254.645 528.804 256.859 526.59 257.777C526.698 258.424 526.752 259.072 526.752 259.72C526.752 269.6 515.253 277.59 501.054 277.59C486.855 277.59 475.356 269.6 475.356 259.72C475.356 259.072 475.41 258.424 475.518 257.777C473.304 256.805 471.739 254.537 471.739 251.946C471.739 248.383 474.6 245.521 478.163 245.521C479.891 245.521 481.456 246.223 482.59 247.303C487.071 244.064 493.172 242.066 500.028 241.85L503.267 226.518C503.321 226.248 503.483 225.978 503.753 225.816C504.023 225.654 504.347 225.6 504.617 225.654L515.307 227.921C516.063 226.41 517.628 225.384 519.41 225.384C521.947 225.384 523.999 227.436 523.999 229.973C523.999 232.51 521.947 234.562 519.41 234.562C516.926 234.562 514.929 232.618 514.821 230.189L505.265 228.137L502.35 241.904C509.098 242.12 515.145 244.172 519.518 247.357C520.652 246.277 522.217 245.575 523.945 245.575Z" fill="white"/>
<path fill-rule="evenodd" clip-rule="evenodd" d="M620.643 208C612.556 208 606 214.566 606 222.667V281.333C606 289.434 612.556 296 620.643 296H677.524C685.611 296 692.167 289.434 692.167 281.333V222.667C692.167 214.566 685.611 208 677.524 208H620.643ZM617.826 227.686C617.826 232.11 621.175 235.344 625.306 235.344C629.438 235.344 632.787 232.11 632.787 227.686C632.787 223.262 629.438 220.025 625.306 220.025C621.175 220.025 617.826 223.262 617.826 227.686ZM666.654 283.63H679.629V257.418C679.629 244.473 671.805 240.057 664.565 240.057C657.87 240.057 653.322 244.511 652.067 247.121V241.248H639.589V283.63H652.564V260.652C652.564 254.525 656.338 251.546 660.188 251.546C663.83 251.546 666.654 253.652 666.654 260.482V283.63ZM631.793 241.216V283.597H618.819V241.216H631.793Z" fill="white"/>
<g filter="url(#filter0_d_56_5)">
<path fill-rule="evenodd" clip-rule="evenodd" d="M818 208C793.69 208 774 228.188 774 253.113C774 273.075 786.595 289.936 804.085 295.914C806.285 296.309 807.11 294.955 807.11 293.771C807.11 292.7 807.055 289.147 807.055 285.369C796 287.455 793.14 282.605 792.26 280.068C791.765 278.771 789.62 274.767 787.75 273.696C786.21 272.85 784.01 270.763 787.695 270.707C791.16 270.651 793.635 273.978 794.46 275.331C798.42 282.154 804.745 280.237 807.275 279.053C807.66 276.121 808.815 274.147 810.08 273.019C800.29 271.891 790.06 268 790.06 250.744C790.06 245.838 791.765 241.778 794.57 238.62C794.13 237.493 792.59 232.868 795.01 226.665C795.01 226.665 798.695 225.481 807.11 231.29C810.63 230.275 814.37 229.767 818.11 229.767C821.85 229.767 825.59 230.275 829.11 231.29C837.525 225.425 841.21 226.665 841.21 226.665C843.63 232.868 842.09 237.493 841.65 238.62C844.455 241.778 846.16 245.782 846.16 250.744C846.16 268.057 835.875 271.891 826.085 273.019C827.68 274.429 829.055 277.136 829.055 281.365C829.055 287.399 829 292.248 829 293.771C829 294.955 829.825 296.365 832.025 295.914C840.76 292.89 848.35 287.135 853.727 279.457C859.104 271.779 861.998 262.565 862 253.113C862 228.188 842.31 208 818 208Z" fill="white"/>
</g>
<path fill-rule="evenodd" clip-rule="evenodd" d="M406 252C406 276.301 386.301 296 362 296C337.699 296 318 276.301 318 252C318 227.699 337.699 208 362 208C386.301 208 406 227.699 406 252ZM338.884 235.929C339.422 236.425 339.696 237.154 339.623 237.891V264.428C339.783 265.385 339.488 266.363 338.829 267.062L332.667 274.712V275.721H350.141V274.712L343.978 267.062C343.314 266.364 343.001 265.393 343.129 264.428V241.477L358.467 275.721H360.247L373.421 241.477V268.772C373.421 269.5 373.421 269.64 372.955 270.117L368.217 274.825V275.833H391.224V274.825L386.65 270.229C386.246 269.914 386.046 269.396 386.129 268.884V235.116C386.046 234.604 386.246 234.086 386.65 233.771L391.333 229.175V228.167H375.119L363.561 257.675L350.415 228.167H333.406V229.175L338.884 235.929Z" fill="white"/>
<defs>
<filter id="filter0_d_56_5" x="770" y="208" width="96" height="96" filterUnits="userSpaceOnUse" color-interpolation-filters="sRGB">
<feFlood flood-opacity="0" result="BackgroundImageFix"/>
<feColorMatrix in="SourceAlpha" type="matrix" values="0 0 0 0 0 0 0 0 0 0 0 0 0 0 0 0 0 0 127 0" result="hardAlpha"/>
<feOffset dy="4"/>
<feGaussianBlur stdDeviation="2"/>
<feComposite in2="hardAlpha" operator="out"/>
<feColorMatrix type="matrix" values="0 0 0 0 0 0 0 0 0 0 0 0 0 0 0 0 0 0 0.25 0"/>
<feBlend mode="normal" in2="BackgroundImageFix" result="effect1_dropShadow_56_5"/>
<feBlend mode="normal" in="SourceGraphic" in2="effect1_dropShadow_56_5" result="shape"/>
</filter>
</defs>
</svg>
