<svg width="500" height="500" viewBox="0 0 500 500" fill="none" xmlns="http://www.w3.org/2000/svg">
<g clip-path="url(#clip0_165_11)">
<path d="M404.16 471.954C404.044 471.954 403.927 471.941 403.811 471.941C371.535 470.815 345.955 455.35 345.955 436.427V428.669C345.955 409.022 373.542 393.091 407.58 393.091C441.617 393.091 469.204 409.022 469.204 428.669C469.203 430.699 468.911 432.719 468.337 434.666V434.679" fill="white"/>
<path d="M38.4238 242.004L5.37729 261.086L0.627871 263.828C0.331256 264.002 0.1157 264.286 0.028623 264.618C-0.0584542 264.951 -0.00991981 265.304 0.163549 265.601C0.337018 265.897 0.621212 266.113 0.953611 266.2C1.28601 266.287 1.63939 266.238 1.936 266.065L34.9838 246.984L39.7319 244.242C40.0285 244.069 40.2441 243.785 40.3312 243.452C40.4182 243.12 40.3697 242.767 40.1962 242.47C40.0228 242.173 39.7386 241.958 39.4062 241.871C39.0738 241.784 38.7204 241.832 38.4238 242.006V242.004Z" fill="#D7EBF7"/>
<path d="M253.881 117.614L216.395 139.256L211.005 142.365C210.858 142.451 210.729 142.564 210.626 142.7C210.523 142.836 210.448 142.99 210.404 143.155C210.361 143.32 210.35 143.492 210.373 143.66C210.396 143.829 210.452 143.992 210.538 144.139C210.624 144.286 210.738 144.415 210.873 144.518C211.009 144.622 211.163 144.697 211.328 144.74C211.493 144.784 211.665 144.794 211.834 144.771C212.002 144.748 212.165 144.692 212.312 144.607L249.799 122.964L255.188 119.856C255.484 119.683 255.7 119.398 255.787 119.066C255.874 118.734 255.826 118.381 255.653 118.084C255.48 117.787 255.196 117.572 254.863 117.485C254.531 117.397 254.178 117.446 253.881 117.619V117.614Z" fill="#D7EBF7"/>
<path d="M446.719 303.497L467.856 315.697L470.882 317.443C471.179 317.617 471.532 317.665 471.864 317.578C472.197 317.491 472.481 317.275 472.654 316.979C472.828 316.682 472.876 316.329 472.789 315.996C472.702 315.664 472.487 315.38 472.19 315.206L451.051 303.006L448.026 301.26C447.729 301.087 447.376 301.038 447.044 301.125C446.711 301.213 446.427 301.428 446.254 301.725C446.081 302.021 446.032 302.375 446.12 302.707C446.207 303.039 446.422 303.323 446.719 303.497Z" fill="#D7EBF7"/>
<path d="M216.177 170.43L249.722 189.789L254.444 192.509C254.741 192.682 255.094 192.731 255.427 192.643C255.759 192.556 256.043 192.341 256.216 192.044C256.389 191.747 256.438 191.394 256.351 191.062C256.263 190.729 256.048 190.445 255.751 190.272L222.206 170.913L217.484 168.193C217.337 168.107 217.175 168.051 217.006 168.028C216.838 168.005 216.666 168.016 216.502 168.059C216.337 168.102 216.183 168.177 216.047 168.28C215.912 168.383 215.798 168.511 215.712 168.658C215.626 168.805 215.57 168.967 215.547 169.136C215.524 169.304 215.534 169.476 215.578 169.64C215.621 169.805 215.696 169.959 215.799 170.095C215.902 170.23 216.03 170.344 216.177 170.43Z" fill="#D7EBF7"/>
<path d="M491.253 249.297L461.969 266.202L441.342 278.118L410.369 296.004L387.49 309.215L360.994 324.507L333.666 340.282L311.459 353.105L280.093 371.218L260.202 382.705L226.81 401.987L224.075 403.567C223.929 403.653 223.8 403.767 223.697 403.903C223.594 404.038 223.519 404.192 223.476 404.357C223.433 404.522 223.422 404.693 223.446 404.862C223.469 405.03 223.525 405.192 223.61 405.339C223.696 405.486 223.81 405.615 223.946 405.717C224.081 405.82 224.236 405.896 224.4 405.939C224.565 405.982 224.736 405.992 224.905 405.969C225.073 405.946 225.235 405.89 225.382 405.804L254.35 389.076L273.082 378.258L308.322 357.908L326.073 347.66L359.861 328.153L379.503 316.811L410.493 298.92L433.249 285.781L459.881 270.402L489.339 253.398L492.561 251.538C492.858 251.365 493.073 251.08 493.16 250.748C493.247 250.416 493.199 250.062 493.025 249.766C492.852 249.469 492.568 249.253 492.235 249.166C491.903 249.079 491.549 249.128 491.253 249.301V249.297Z" fill="#D7EBF7"/>
<path d="M273.362 307.89L262.524 314.151L236.352 329.268L204.817 347.484L177.541 363.239L168.474 368.477C167.069 369.288 165.561 370.022 164.218 370.938C164.16 370.978 164.095 371.011 164.033 371.045C163.886 371.131 163.758 371.245 163.655 371.381C163.552 371.516 163.477 371.671 163.434 371.836C163.391 372 163.38 372.172 163.404 372.34C163.427 372.509 163.483 372.671 163.569 372.818C163.655 372.965 163.769 373.093 163.904 373.196C164.04 373.299 164.194 373.374 164.359 373.417C164.523 373.46 164.695 373.471 164.864 373.447C165.032 373.424 165.194 373.368 165.341 373.282L176.178 367.023L202.351 351.904L233.886 333.689L261.163 317.934L270.229 312.696C271.633 311.884 273.14 311.15 274.483 310.236C274.542 310.195 274.613 310.164 274.669 310.128C274.965 309.955 275.181 309.671 275.268 309.338C275.355 309.006 275.307 308.653 275.134 308.356C274.96 308.06 274.676 307.844 274.344 307.757C274.012 307.67 273.658 307.717 273.362 307.89Z" fill="#D7EBF7"/>
<path d="M149.403 312.298C140.787 317.274 132.173 322.25 123.56 327.227L100.404 340.587L86.1747 348.803C85.8781 348.977 85.6626 349.261 85.5755 349.593C85.4884 349.926 85.537 350.279 85.7104 350.576C85.8839 350.872 86.1681 351.088 86.5005 351.175C86.8329 351.262 87.1863 351.214 87.4829 351.04L112.94 336.345L137.097 322.399L150.716 314.534C151.013 314.361 151.228 314.077 151.316 313.745C151.403 313.412 151.354 313.059 151.181 312.762C151.008 312.466 150.724 312.25 150.391 312.163C150.059 312.076 149.706 312.124 149.409 312.298H149.403Z" fill="#D7EBF7"/>
<path d="M59.9323 296.776L32.0069 312.898L28.0087 315.207C27.7121 315.38 27.4966 315.664 27.4095 315.997C27.3224 316.329 27.3709 316.682 27.5444 316.979C27.7179 317.276 28.0021 317.491 28.3345 317.578C28.6669 317.665 29.0202 317.617 29.3169 317.443L57.2474 301.323L61.2443 299.015C61.3912 298.93 61.5197 298.816 61.6226 298.68C61.7254 298.545 61.8006 298.39 61.8438 298.226C61.8869 298.061 61.8973 297.89 61.8742 297.721C61.8511 297.553 61.7951 297.391 61.7093 297.244C61.6235 297.097 61.5096 296.968 61.3741 296.865C61.2386 296.763 61.0842 296.687 60.9197 296.644C60.7552 296.601 60.5837 296.591 60.4152 296.614C60.2467 296.637 60.0844 296.693 59.9375 296.779L59.9323 296.776Z" fill="#D7EBF7"/>
<path d="M263.559 179.213L239.062 193.356L235.556 195.38C235.409 195.466 235.281 195.58 235.178 195.715C235.075 195.851 235 196.005 234.956 196.17C234.913 196.334 234.903 196.506 234.926 196.674C234.949 196.843 235.005 197.005 235.091 197.152C235.177 197.299 235.291 197.427 235.426 197.53C235.562 197.633 235.716 197.708 235.881 197.751C236.045 197.795 236.217 197.805 236.385 197.782C236.554 197.759 236.716 197.703 236.863 197.617L261.36 183.474L264.866 181.449C265.013 181.363 265.141 181.25 265.244 181.114C265.347 180.979 265.422 180.824 265.465 180.66C265.508 180.495 265.519 180.324 265.496 180.155C265.473 179.987 265.417 179.824 265.331 179.678C265.245 179.531 265.131 179.402 264.996 179.299C264.86 179.196 264.706 179.121 264.541 179.078C264.377 179.035 264.205 179.025 264.037 179.048C263.868 179.071 263.706 179.127 263.559 179.213Z" fill="#D7EBF7"/>
<path d="M266.205 397.839L237.536 381.281L219.212 370.701L183.996 350.376C178.362 347.125 172.729 343.872 167.096 340.618L132.515 320.646C126.562 317.209 120.609 313.772 114.656 310.335L81.5964 291.244L61.9835 279.922L31.302 262.209L7.38259 248.4L1.94283 245.254C1.79597 245.168 1.63362 245.112 1.46506 245.089C1.2965 245.066 1.12503 245.076 0.960444 245.119C0.795856 245.162 0.641373 245.237 0.505814 245.34C0.370255 245.443 0.256275 245.571 0.170382 245.718C0.0844885 245.865 0.0283644 246.027 0.00521376 246.196C-0.0179369 246.365 -0.00766074 246.536 0.0354555 246.701C0.0785718 246.865 0.153684 247.02 0.256503 247.155C0.359322 247.291 0.487835 247.405 0.634703 247.491L27.6366 263.081C35.5113 267.629 43.3864 272.176 51.262 276.722L78.4024 292.393L104.166 307.267C112.012 311.798 119.858 316.327 127.703 320.856L157.041 337.801C163.942 341.787 170.844 345.774 177.747 349.759L209.807 368.265C216.239 371.978 222.672 375.691 229.106 379.403L262.187 398.51L264.907 400.082C265.204 400.256 265.557 400.304 265.889 400.217C266.222 400.13 266.506 399.914 266.679 399.618C266.853 399.321 266.901 398.968 266.814 398.635C266.727 398.303 266.512 398.019 266.215 397.845L266.205 397.839Z" fill="#D7EBF7"/>
<path d="M206.247 299.013L220.993 307.527L256.406 327.977L299.248 352.715L336.282 374.101L348.485 381.148C350.402 382.255 352.293 383.496 354.273 384.489C354.359 384.532 354.44 384.587 354.523 384.634C354.82 384.808 355.173 384.856 355.506 384.769C355.838 384.682 356.122 384.467 356.296 384.17C356.469 383.874 356.518 383.52 356.431 383.188C356.344 382.855 356.128 382.571 355.831 382.398L341.086 373.883L305.673 353.434L262.831 328.696L225.795 307.31L213.594 300.263C211.675 299.155 209.784 297.914 207.805 296.921C207.72 296.877 207.638 296.824 207.554 296.776C207.258 296.603 206.904 296.554 206.572 296.642C206.24 296.729 205.956 296.944 205.782 297.241C205.609 297.538 205.561 297.891 205.648 298.223C205.735 298.555 205.951 298.839 206.247 299.013Z" fill="#D7EBF7"/>
<path d="M448.132 237.118L470.021 249.757L487.206 259.678L498.072 265.949C498.368 266.123 498.722 266.171 499.054 266.084C499.386 265.997 499.671 265.782 499.844 265.485C500.018 265.189 500.066 264.835 499.979 264.503C499.892 264.17 499.676 263.886 499.38 263.713L478.11 251.437C471.779 247.784 465.449 244.128 459.119 240.471L449.427 234.881C449.133 234.735 448.794 234.707 448.479 234.802C448.164 234.897 447.898 235.109 447.733 235.393C447.568 235.677 447.518 236.014 447.592 236.334C447.666 236.654 447.859 236.934 448.132 237.118Z" fill="#D7EBF7"/>
<path d="M234.396 113.722L264.947 131.365L284.893 142.883L314.26 159.834L355.56 183.676C363.622 188.329 371.596 193.201 379.771 197.651C379.901 197.721 380.024 197.797 380.151 197.87C380.447 198.043 380.801 198.091 381.133 198.004C381.465 197.917 381.749 197.701 381.923 197.405C382.096 197.108 382.144 196.755 382.057 196.422C381.97 196.09 381.754 195.806 381.458 195.633L361.308 184.002L320.402 160.387L288.106 141.746L271.104 131.928L236.447 111.914L235.705 111.485C235.408 111.312 235.055 111.263 234.722 111.35C234.39 111.437 234.106 111.653 233.932 111.949C233.759 112.246 233.71 112.599 233.797 112.932C233.884 113.264 234.1 113.548 234.396 113.722Z" fill="#D7EBF7"/>
<path d="M351.605 52.8924C338.301 45.2029 323.428 36.6276 308.552 28.0405C293.695 36.6198 278.838 45.1848 265.552 52.8652C265.552 124.806 265.552 196.76 265.552 196.767C280.187 205.243 308.351 221.498 308.552 221.612C321.853 213.938 336.728 205.347 351.605 196.756V52.8924Z" fill="white"/>
<path d="M351.431 81.1157C336.64 89.6639 321.851 98.1965 308.606 105.854C308.535 105.898 308.448 105.94 308.377 105.983C308.162 105.854 307.962 105.74 307.762 105.626C294.689 98.08 280.128 89.66 265.552 81.2414V99.857C280.128 108.276 294.693 116.694 307.762 124.241C307.962 124.355 308.162 124.471 308.377 124.599C308.448 124.556 308.535 124.513 308.606 124.469C321.851 116.808 336.64 108.28 351.431 99.7313H351.66V81.1157H351.431Z" fill="#2D0E37"/>
<path d="M351.431 118.615C336.64 127.163 321.851 135.697 308.606 143.353C308.535 143.396 308.448 143.438 308.377 143.482C308.162 143.353 307.962 143.239 307.762 143.125C294.689 135.579 280.128 127.161 265.552 118.742V137.354C280.128 145.772 294.693 154.191 307.762 161.737C307.962 161.852 308.162 161.966 308.377 162.095C308.448 162.051 308.535 162.009 308.606 161.966C321.851 154.306 336.64 145.776 351.431 137.228H351.66V118.615H351.431Z" fill="#2D0E37"/>
<path d="M351.431 156.116C336.64 164.664 321.851 173.197 308.606 180.854C308.535 180.898 308.448 180.94 308.377 180.983C308.162 180.854 307.962 180.74 307.762 180.626C294.689 173.08 280.128 164.66 265.552 156.241V174.854C280.128 183.273 294.693 191.692 307.762 199.239C307.962 199.353 308.162 199.468 308.377 199.596C308.448 199.553 308.535 199.511 308.606 199.467C321.851 191.806 336.64 183.277 351.431 174.729H351.66V156.116H351.431Z" fill="#2D0E37"/>
<path d="M350.298 194.515C335.948 202.804 321.596 211.09 307.244 219.371H309.859C299.228 213.268 288.612 207.14 278.009 200.987L266.805 194.511C263.913 192.84 261.301 197.315 264.19 198.985C274.946 205.202 285.704 211.413 296.464 217.62C299.813 219.552 303.161 221.484 306.508 223.416C306.738 223.545 306.963 223.696 307.2 223.815C309.099 224.772 310.772 223.315 312.372 222.39L324.337 215.484L352.913 198.984C355.799 197.317 353.193 192.838 350.298 194.51V194.515Z" fill="#211715"/>
<path d="M264.245 177.094C276.01 183.891 287.775 190.688 299.54 197.486L303.411 199.722C304.678 200.565 306.004 201.315 307.38 201.966C308.907 202.566 310.138 201.578 311.41 200.841L315.717 198.351C321.357 195.092 326.998 191.833 332.641 188.574C339.341 184.705 346.04 180.835 352.738 176.965C355.625 175.297 353.019 170.819 350.124 172.492C335.778 180.781 321.511 189.239 307.07 197.359H309.685C295.478 188.998 281.134 180.863 266.86 172.621C263.968 170.952 261.355 175.425 264.245 177.094Z" fill="#211715"/>
<path d="M264.245 158.481C276.01 165.277 287.775 172.074 299.54 178.872L303.411 181.107C304.678 181.952 306.004 182.702 307.38 183.353C308.907 183.953 310.138 182.965 311.41 182.228L315.717 179.738C321.357 176.479 326.998 173.22 332.641 169.961C339.341 166.093 346.04 162.223 352.738 158.352C355.625 156.684 353.019 152.206 350.124 153.879C335.778 162.168 321.511 170.626 307.07 178.746H309.685C295.478 170.385 281.134 162.25 266.86 154.008C263.968 152.338 261.355 156.812 264.245 158.481Z" fill="#211715"/>
<path d="M264.245 139.594C276.01 146.39 287.775 153.187 299.54 159.986L303.411 162.221C304.678 163.065 306.004 163.815 307.38 164.466C308.907 165.065 310.138 164.077 311.41 163.342L315.717 160.852C321.357 157.591 326.998 154.332 332.641 151.075C339.341 147.207 346.04 143.337 352.738 139.465C355.625 137.798 353.019 133.319 350.124 134.993C335.778 143.282 321.511 151.739 307.07 159.86H309.685C295.478 151.498 281.134 143.363 266.86 135.122C263.968 133.451 261.355 137.925 264.245 139.594Z" fill="#211715"/>
<path d="M264.245 120.981C276.01 127.778 287.775 134.573 299.54 141.369L303.411 143.604C304.678 144.448 306.004 145.198 307.38 145.849C308.907 146.449 310.138 145.46 311.41 144.725L315.717 142.234C321.361 138.981 327.002 135.723 332.641 132.462C339.341 128.592 346.04 124.722 352.738 120.852C355.625 119.185 353.019 114.706 350.124 116.378C335.778 124.668 321.511 133.125 307.07 141.246H309.685C295.478 132.885 281.134 124.75 266.86 116.508C263.968 114.837 261.355 119.312 264.245 120.981Z" fill="#211715"/>
<path d="M264.245 102.094C276.01 108.891 287.775 115.688 299.54 122.486L303.411 124.722C304.678 125.565 306.004 126.315 307.38 126.966C308.907 127.566 310.138 126.578 311.41 125.841L315.717 123.351C321.357 120.092 326.998 116.833 332.641 113.574C339.341 109.705 346.04 105.835 352.738 101.965C355.625 100.297 353.019 95.8185 350.124 97.4919C335.778 105.781 321.511 114.239 307.07 122.359H309.685C295.478 113.999 281.134 105.863 266.86 97.6214C263.968 95.9506 261.355 100.425 264.245 102.094Z" fill="#211715"/>
<path d="M264.245 83.4806C276.01 90.2769 287.775 97.074 299.54 103.872L303.411 106.107C304.678 106.952 306.004 107.702 307.38 108.353C308.907 108.953 310.138 107.965 311.41 107.228L315.717 104.738C321.357 101.478 326.998 98.2189 332.641 94.9611C339.341 91.0928 346.04 87.2233 352.738 83.3524C355.625 81.6842 353.019 77.2055 350.124 78.8789C335.778 87.168 321.511 95.6255 307.07 103.746H309.685C295.478 95.3846 281.134 87.2496 266.86 79.0084C263.968 77.3376 261.355 81.8125 264.245 83.4806Z" fill="#211715"/>
<path d="M306.016 78.1497V202.452C306.016 208.199 305.806 213.991 306.016 219.735C306.016 219.829 306.016 219.924 306.016 220.019C306.016 223.352 311.197 223.357 311.197 220.019V95.7163C311.197 89.9696 311.407 84.1775 311.197 78.4334C311.197 78.3388 311.197 78.243 311.197 78.1497C311.197 74.816 306.016 74.8108 306.016 78.1497Z" fill="#211715"/>
<path d="M350.352 50.6557C336.003 58.9448 321.652 67.2301 307.299 75.5115H309.914C295.542 67.2638 281.191 58.9785 266.86 50.6557C263.968 48.9849 261.355 53.4598 264.245 55.1292C275.929 61.8788 287.615 68.6246 299.303 75.3664C301.908 76.8701 304.475 78.5202 307.148 79.8995C308.799 80.7518 309.96 79.9591 311.422 79.1224L315.748 76.6266C321.42 73.3533 327.091 70.0795 332.76 66.8053C339.495 62.9197 346.232 59.0295 352.973 55.1344C355.86 53.4675 353.254 48.9888 350.358 50.6609L350.352 50.6557Z" fill="#211715"/>
<path d="M266.807 55.1293C281.153 46.8401 295.504 38.5549 309.861 30.2735H307.246C321.597 38.5626 335.948 46.8479 350.3 55.1293C353.193 56.8 355.804 52.3252 352.915 50.6557C338.567 42.3631 324.214 34.0779 309.858 25.7999C309.461 25.5708 309.01 25.4502 308.551 25.4502C308.092 25.4502 307.641 25.5708 307.243 25.7999C292.893 34.0891 278.541 42.3743 264.189 50.6557C261.303 52.3239 263.909 56.8026 266.804 55.1293H266.807Z" fill="#211715"/>
<path d="M349.015 52.8924V178.929C349.015 184.757 348.795 190.642 349.015 196.472C349.015 196.565 349.015 196.66 349.015 196.753C349.015 200.087 354.196 200.092 354.196 196.753V70.7089C354.196 64.8806 354.416 58.9992 354.196 53.1722C354.196 53.0789 354.196 52.9857 354.196 52.8924C354.196 49.5586 349.015 49.5535 349.015 52.8924Z" fill="#211715"/>
<path d="M262.961 52.8924V178.929C262.961 184.757 262.741 190.642 262.961 196.472C262.961 196.565 262.961 196.66 262.961 196.753C262.961 200.087 268.142 200.092 268.142 196.753V70.7089C268.142 64.8806 268.362 58.9992 268.142 53.1722C268.142 53.0789 268.142 52.9857 268.142 52.8924C268.142 49.5586 262.961 49.5535 262.961 52.8924Z" fill="#211715"/>
<path d="M404.161 469.364C387.92 468.762 369.579 464.857 357.23 453.53C352.978 449.633 349.425 444.509 348.682 438.853C348.371 435.306 348.328 431.74 348.552 428.186C348.627 425.53 349.254 422.919 350.394 420.519C353.171 414.69 358.125 410.214 363.522 406.826C370.491 402.606 378.129 399.607 386.107 397.958C404.067 393.956 423.851 394.912 441.078 401.56C452.243 405.869 466.093 414.72 466.593 427.866C466.642 428.947 466.598 430.031 466.464 431.104C466.146 432.279 465.903 433.473 465.737 434.679C465.737 438.012 470.918 438.018 470.918 434.679C471.083 434.226 471.217 433.762 471.321 433.291C471.458 432.568 471.564 431.836 471.645 431.104C471.778 429.923 471.815 428.733 471.755 427.545C471.668 425.879 471.414 424.226 470.996 422.61C470.146 419.469 468.74 416.506 466.842 413.863C462.227 407.728 456.184 402.813 449.238 399.545C431.669 390.745 410.779 388.856 391.529 391.706C375.628 394.06 357.49 400.432 348.011 414.285C346.131 416.993 344.77 420.027 343.996 423.231C343.366 426.856 343.152 430.541 343.358 434.214C343.223 437.614 343.674 441.013 344.694 444.259C345.872 447.499 347.593 450.515 349.781 453.179C354.664 459.274 361.578 463.695 368.644 466.843C377.553 470.713 387.019 473.143 396.69 474.043C399.173 474.302 401.661 474.451 404.154 474.545C407.488 474.674 407.483 469.493 404.154 469.364H404.161Z" fill="#211715"/>
<path d="M163.643 303.8L48.9434 237.572L165.307 170.381L281.672 237.57L165.307 304.758L163.643 303.8Z" fill="white"/>
<path d="M164.951 301.563L76.5347 250.512L50.2529 235.335V239.809L140.138 187.91L166.618 172.627H164.003L256.076 225.79L280.367 239.815V235.342L188.292 288.501L164.001 302.527H166.614L164.951 301.566C162.058 299.896 159.447 304.371 162.336 306.039L164.001 307C164.398 307.229 164.849 307.35 165.308 307.35C165.766 307.35 166.217 307.229 166.614 307L256.5 255.101L282.98 239.812C283.365 239.579 283.683 239.25 283.903 238.858C284.124 238.467 284.24 238.025 284.24 237.575C284.24 237.125 284.124 236.683 283.903 236.291C283.683 235.899 283.365 235.571 282.98 235.338L193.094 183.439L166.616 168.149C166.218 167.921 165.767 167.801 165.308 167.801C164.849 167.801 164.399 167.921 164.001 168.149L71.9265 221.312L47.6354 235.335C47.2507 235.568 46.9326 235.897 46.7118 236.288C46.491 236.68 46.375 237.122 46.375 237.572C46.375 238.022 46.491 238.464 46.7118 238.856C46.9326 239.248 47.2507 239.576 47.6354 239.809L138.153 292.073L162.336 306.037C165.229 307.707 167.841 303.233 164.951 301.563Z" fill="#211715"/>
<path d="M165.307 135.91C178.764 143.681 192.221 151.439 204.253 158.394C190.796 166.165 177.34 173.936 165.307 180.878C165.126 180.775 164.945 180.671 164.75 180.554C152.861 173.69 139.611 166.048 126.361 158.394C138.394 151.439 151.85 143.681 165.307 135.91Z" fill="white"/>
<path d="M165.308 235.6V218.762C177.288 211.833 190.667 204.114 204.046 196.382H204.254V213.219H204.046C190.667 220.951 177.288 228.67 165.308 235.6Z" fill="#2D0E37"/>
<path d="M165.307 235.6V258.874L164.686 259.949C152.809 253.097 139.585 245.469 126.361 237.827V213.335C139.546 220.951 152.718 228.567 164.543 235.392C164.725 235.496 164.906 235.6 165.1 235.716C165.165 235.677 165.243 235.638 165.307 235.6Z" fill="white"/>
<path d="M204.249 237.827C190.792 245.598 177.336 253.369 165.303 260.311C165.122 260.208 164.941 260.104 164.746 259.988C164.72 259.975 164.708 259.962 164.682 259.949L165.303 258.874V235.599C177.284 228.67 190.663 220.951 204.042 213.219H204.249V237.827Z" fill="white"/>
<path d="M126.361 196.498C139.546 204.114 152.718 211.729 164.543 218.555C164.725 218.659 164.906 218.762 165.1 218.879C165.165 218.84 165.243 218.801 165.307 218.762V235.6C165.243 235.638 165.165 235.677 165.1 235.716C164.906 235.6 164.725 235.496 164.543 235.392C152.718 228.567 139.546 220.951 126.361 213.335V196.498Z" fill="#2D0E37"/>
<path d="M202.947 235.591C189.965 243.087 176.983 250.582 164.001 258.075H166.616C153.615 250.613 140.633 243.118 127.67 235.591C124.777 233.92 122.165 238.395 125.055 240.064C135.696 246.214 146.34 252.358 156.987 258.498C159.23 259.794 161.445 261.168 163.722 262.392C166.256 263.749 169.268 261.016 171.445 259.759C176.694 256.73 181.943 253.701 187.191 250.67L205.558 240.064C208.443 238.397 205.837 233.918 202.943 235.591H202.947Z" fill="#211715"/>
<path d="M125.055 215.572C135.661 221.698 146.267 227.826 156.873 233.955C159.162 235.277 161.421 236.787 163.794 237.953C165.264 238.677 166.355 237.988 167.617 237.257L171.428 235.056C176.649 232.034 181.873 229.017 187.099 226.006C193.187 222.489 199.274 218.973 205.361 215.457C208.247 213.789 205.641 209.311 202.747 210.983C189.769 218.484 176.864 226.137 163.8 233.481H166.415C153.565 225.918 140.588 218.559 127.677 211.1C124.783 209.429 122.172 213.905 125.062 215.574L125.055 215.572Z" fill="#211715"/>
<path d="M125.055 198.735C135.661 204.861 146.267 210.989 156.873 217.117C159.162 218.44 161.421 219.95 163.794 221.116C165.264 221.84 166.355 221.151 167.617 220.42L171.428 218.218C176.649 215.196 181.873 212.18 187.099 209.169C193.187 205.652 199.274 202.136 205.361 198.62C208.247 196.951 205.641 192.474 202.747 194.146C189.769 201.646 176.864 209.3 163.8 216.643H166.415C153.565 209.081 140.588 201.722 127.677 194.263C124.783 192.592 122.172 197.068 125.062 198.736L125.055 198.735Z" fill="#211715"/>
<path d="M162.717 191.396V246.945C162.717 250.279 167.898 250.284 167.898 246.945V191.396C167.898 188.063 162.717 188.057 162.717 191.396Z" fill="#211715"/>
<path d="M202.947 156.157C189.965 163.654 176.983 171.148 164.001 178.641H166.616C153.615 171.18 140.633 163.685 127.67 156.157C124.776 154.486 122.165 158.961 125.055 160.631C135.629 166.74 146.206 172.845 156.787 178.947C159.135 180.303 161.449 181.811 163.866 183.037C165.432 183.83 166.484 183.193 167.881 182.39C169.159 181.652 170.437 180.915 171.715 180.178L187.203 171.241L205.57 160.635C208.455 158.968 205.849 154.489 202.955 156.161L202.947 156.157Z" fill="#211715"/>
<path d="M127.669 160.631C140.647 153.129 153.629 145.634 166.615 138.147H164C176.981 145.643 189.963 153.138 202.946 160.631C205.837 162.303 208.45 157.827 205.561 156.157C192.583 148.656 179.601 141.161 166.615 133.673C166.217 133.444 165.767 133.324 165.308 133.324C164.849 133.324 164.398 133.444 164 133.673C151.019 141.169 138.037 148.664 125.054 156.157C122.169 157.825 124.775 162.304 127.669 160.631Z" fill="#211715"/>
<path d="M123.771 158.394V237.827C123.771 241.161 128.952 241.166 128.952 237.827V158.394C128.952 155.06 123.771 155.055 123.771 158.394Z" fill="#211715"/>
<path d="M201.659 158.394V237.827C201.659 241.161 206.84 241.166 206.84 237.827V158.394C206.84 155.06 201.659 155.055 201.659 158.394Z" fill="#211715"/>
<path d="M64.0853 261.58C72.1802 256.907 80.2725 252.229 88.3622 247.546C91.2478 245.879 88.6419 241.401 85.7472 243.073C77.6549 247.749 69.5626 252.427 61.4704 257.107C58.5847 258.773 61.1906 263.252 64.0853 261.58Z" fill="#211715"/>
<path d="M321.605 253.902L333.765 246.882L345.922 253.902C345.922 254.141 345.922 276.911 345.922 277.408L333.765 284.426L333.591 284.327L321.605 277.407C321.605 276.87 321.607 254.263 321.605 253.902Z" fill="white"/>
<path d="M344.616 275.17L332.457 282.19H335.072L322.914 275.17C320.021 273.499 317.409 277.975 320.299 279.643L332.457 286.663C332.854 286.892 333.305 287.013 333.764 287.013C334.223 287.013 334.674 286.892 335.072 286.663L347.231 279.643C350.118 277.977 347.512 273.498 344.616 275.17Z" fill="#211715"/>
<path d="M322.914 256.139L335.072 249.119H332.457C336.511 251.458 340.564 253.798 344.616 256.139C347.51 257.809 350.121 253.333 347.231 251.665L335.072 244.645C334.674 244.416 334.224 244.295 333.765 244.295C333.306 244.295 332.855 244.416 332.457 244.645L320.299 251.665C317.412 253.332 320.018 257.811 322.914 256.139Z" fill="#211715"/>
<path d="M319.016 253.902C319.027 260.7 319.016 267.501 319.016 274.296V277.404C319.016 280.738 324.196 280.743 324.196 277.404V256.921C324.196 255.914 324.196 254.908 324.196 253.902C324.196 250.569 319.016 250.563 319.016 253.902Z" fill="#211715"/>
<path d="M343.333 253.902C343.346 260.7 343.333 267.501 343.333 274.296V277.404C343.333 280.738 348.514 280.743 348.514 277.404C348.514 270.575 348.514 263.747 348.514 256.918C348.514 255.912 348.514 254.906 348.514 253.899C348.514 250.567 343.333 250.56 343.333 253.899V253.902Z" fill="#211715"/>
<path d="M350.994 237.564C350.994 232.744 350.994 227.925 350.994 223.105C350.987 222.652 350.862 222.208 350.632 221.818C350.401 221.427 350.074 221.104 349.681 220.878C349.287 220.653 348.842 220.533 348.389 220.531C347.936 220.53 347.49 220.646 347.095 220.868L299.636 248.265C299.246 248.494 298.923 248.821 298.698 249.213C298.473 249.606 298.354 250.05 298.353 250.502C298.353 269.735 298.356 288.969 298.364 308.203C298.371 308.656 298.496 309.1 298.726 309.49C298.956 309.881 299.283 310.205 299.677 310.43C300.07 310.656 300.514 310.775 300.968 310.777C301.421 310.779 301.867 310.663 302.261 310.44L313.555 303.914C316.442 302.248 313.836 297.769 310.94 299.441L299.645 305.963L303.544 308.199C303.544 288.966 303.54 269.732 303.532 250.498L302.248 252.735L349.709 225.338L345.813 223.105C345.813 227.925 345.813 232.744 345.813 237.564C345.813 240.898 350.994 240.903 350.994 237.564Z" fill="#211715"/>
<path d="M257.138 302.769C271.578 294.431 286.014 286.087 300.444 277.736L312.187 270.948C315.073 269.281 312.467 264.802 309.572 266.474C293.771 275.607 277.97 284.742 262.169 293.879C259.621 295.352 257.073 296.824 254.527 298.295C251.641 299.962 254.247 304.441 257.142 302.769H257.138Z" fill="#211715"/>
<path d="M284.421 300.656C293.679 295.311 302.934 289.961 312.186 284.607C315.071 282.94 312.465 278.461 309.571 280.133C300.315 285.482 291.061 290.832 281.807 296.183C278.92 297.85 281.526 302.327 284.421 300.656Z" fill="#211715"/>
<path d="M397.818 207.354C396.799 206.762 395.704 206.124 394.554 205.454C393.784 205.004 392.909 204.765 392.018 204.762C391.126 204.76 390.249 204.993 389.477 205.439L362.509 221.029C361.895 221.383 361.384 221.893 361.029 222.507C360.674 223.12 360.486 223.817 360.484 224.526C360.484 228.615 360.484 236.985 360.484 241.052C360.484 241.759 360.67 242.453 361.024 243.066C361.377 243.678 361.885 244.186 362.497 244.54C366.736 247.001 376.315 252.57 377.722 253.375" fill="#2D0E37"/>
<path d="M338.846 269.98C338.707 269.952 338.569 269.927 338.428 269.908C337.718 269.778 336.986 269.84 336.309 270.089C335.632 270.338 335.034 270.763 334.577 271.322C334.245 271.775 334.076 272.327 334.095 272.889C334.228 273.73 334.622 274.507 335.223 275.109C337.54 277.885 340.303 280.256 343.399 282.125C340.803 283.157 338.693 285.132 337.493 287.654C337.04 288.67 336.838 289.781 336.903 290.891C336.969 292.002 337.3 293.081 337.869 294.037C338.783 295.261 339.927 296.294 341.237 297.078L344.023 298.999C345.426 299.965 347.019 300.979 348.701 300.707C349.076 300.599 349.467 300.564 349.855 300.602C350.257 300.737 350.609 300.989 350.867 301.326L353.437 304.09C356.108 300.308 359.811 295.24 362.504 291.682C360.91 289.985 359.684 287.976 358.904 285.781C358.634 284.821 358.293 283.881 357.885 282.971C356.775 281.167 355.253 279.651 353.445 278.546C350.711 276.574 345.258 273.32 342.377 271.569C341.297 270.846 340.104 270.308 338.846 269.98Z" fill="white"/>
<path d="M420.114 265.299C416.514 264.607 412.806 264.704 409.247 265.585C402.113 266.974 395.149 268.105 389.707 271.881C387.19 273.653 385.063 275.922 383.456 278.548C381.407 281.858 376.378 290.168 373.731 294.416C371.93 293.304 369.457 291.492 367.384 290.032C366.753 289.585 365.974 289.4 365.209 289.516C364.445 289.632 363.755 290.04 363.285 290.654C360.289 294.577 355.487 301.145 352.556 305.351C352.144 305.939 351.958 306.656 352.033 307.37C352.107 308.084 352.437 308.747 352.961 309.237C356.779 312.821 363.021 318.532 366.739 320.495C368.974 321.644 371.547 321.958 373.992 321.378C376.498 320.79 378.881 319.765 381.03 318.35C381.011 323.531 381.003 326.835 381.003 326.835C380.993 330.859 381.17 335.472 381.17 335.472C381.081 337.643 382.221 341.3 384 342.523C385.583 343.615 387.694 344.106 392.442 344.97C403.497 346.98 413.261 345.521 425.881 343.466C427.968 343.127 431.484 342.204 432.616 340.844C434.055 339.118 433.98 337.291 434.058 334.72C434.655 314.941 435.805 300.195 432.349 283.32C431.268 278.039 429.759 272.547 425.978 268.704C424.385 267.037 422.352 265.856 420.114 265.299Z" fill="white"/>
<path d="M383.695 256.381C385.331 258.067 387.297 259.397 389.47 260.289C391.643 261.18 393.977 261.613 396.326 261.561L398.218 268.023C401.715 266.993 405.451 266.316 409.246 265.578C409.894 265.448 410.518 265.346 411.128 265.251L411.356 265.102C407.287 260.765 403.939 255.803 401.442 250.406C401.442 250.406 401.172 249.743 400.794 248.805C402.267 247.923 403.447 246.625 404.186 245.075C404.982 243.523 405.327 241.779 405.183 240.041C405.038 238.303 404.411 236.639 403.37 235.24C402.283 233.924 400.76 233.043 399.078 232.755C397.397 232.468 395.667 232.794 394.205 233.674C393.291 231.31 392.036 226.472 391.752 225.514C388.935 223.505 385.994 221.676 382.945 220.039L382.761 220.284C380.29 223.663 378.541 227.514 377.623 231.599C376.705 235.683 376.638 239.912 377.425 244.023C378.255 248.669 380.436 252.967 383.695 256.381Z" fill="white"/>
<path d="M429.503 250.177L429.596 250.014C432.726 244.569 433.978 238.246 433.158 232.02C431.366 219.55 420.762 209.114 408.178 208.402C403.34 208.121 398.506 209.036 394.106 211.067C389.706 213.098 385.874 216.182 382.949 220.047C385.998 221.684 388.939 223.513 391.756 225.522C392.04 226.48 393.295 231.318 394.21 233.681C395.671 232.802 397.401 232.476 399.083 232.763C400.764 233.05 402.287 233.932 403.374 235.247C404.415 236.647 405.043 238.31 405.187 240.049C405.331 241.787 404.986 243.531 404.19 245.083C403.451 246.633 402.271 247.93 400.798 248.813C401.187 249.775 401.446 250.414 401.446 250.414C403.944 255.811 407.291 260.773 411.36 265.11L411.46 265.209C413.58 264.854 415.735 264.758 417.878 264.922C418.723 263.301 419.851 261.843 421.209 260.617C424.752 256.715 427.321 253.979 429.503 250.177Z" fill="#7A7473"/>
<path d="M352.702 299.496C352.278 299.011 351.751 298.626 351.16 298.369C350.569 298.112 349.928 297.99 349.284 298.01C348.751 298.108 348.203 298.099 347.673 297.984C347.143 297.869 346.642 297.649 346.198 297.338C344.119 296.217 342.2 294.823 340.491 293.193C337.364 289.709 341.642 285.754 344.707 284.368C346.56 283.53 346.22 280.826 344.707 279.895C342.737 278.696 340.908 277.278 339.257 275.668C338.462 274.932 337.725 274.135 337.055 273.284C336.633 272.713 336.554 272.86 336.966 272.604C338.408 271.708 340.829 273.667 341.971 274.359C343.537 275.307 345.102 276.254 346.657 277.216C348.213 278.178 349.766 279.15 351.272 280.182C352.814 281.082 354.175 282.26 355.287 283.657C356.431 285.361 356.69 287.61 357.669 289.432C358.433 290.653 359.283 291.819 360.213 292.919C360.574 293.496 361.142 293.913 361.8 294.086C362.459 294.259 363.159 294.173 363.756 293.848C364.346 293.498 364.775 292.93 364.949 292.267C365.123 291.603 365.028 290.898 364.686 290.304C363.802 289.258 362.986 288.155 362.246 287.002C361.223 285.183 360.966 283.043 359.892 281.244C357.933 277.97 354.202 275.848 351.056 273.862C347.828 271.818 344.481 269.352 340.92 267.941C337.023 266.399 331.076 268.147 331.556 273.252C331.791 275.773 334.066 277.866 335.792 279.532C337.712 281.37 339.826 282.996 342.096 284.38V279.906C336.976 282.222 332.716 287.888 334.843 293.691C335.949 296.709 338.564 298.388 341.096 300.133C342.309 301.057 343.601 301.873 344.956 302.572C345.611 302.885 346.305 303.11 347.02 303.243C347.695 303.358 348.984 303.038 349.553 303.278L348.41 302.612C348.644 302.771 348.856 302.961 349.041 303.175C351.372 305.561 355.04 301.897 352.703 299.513L352.702 299.496Z" fill="#211715"/>
<path d="M432.857 418.006L431.561 417.308C427.465 419.281 414.549 419.524 412.103 417.754C407.431 423.125 400.699 423.903 394.646 423.089C393.818 423.026 393 422.862 392.211 422.602C390.043 421.87 388.044 420.708 386.336 419.185C386.319 419.168 386.296 419.159 386.279 419.142L385.535 419.209C384.536 418.611 381.491 419.228 380.244 421.107C378.997 422.986 379.039 426.601 379.745 428.748C381.281 433.418 385.775 435.785 390.399 437.451C395.168 439.253 400.34 439.714 405.352 438.782C406.407 438.519 407.395 438.039 408.253 437.372C409.112 436.705 409.822 435.867 410.337 434.91C410.942 433.776 411.328 432.539 411.476 431.262L419.428 433.091C421.05 433.509 422.718 433.724 424.393 433.73C425.133 433.73 425.911 433.68 426.767 433.591C427.93 433.528 429.065 433.207 430.09 432.652C431.115 432.097 432.003 431.322 432.692 430.382C433.478 428.877 433.879 427.201 433.858 425.504C433.91 423.794 432.802 419.703 432.857 418.006Z" fill="white"/>
<path d="M403.592 345.935C399.855 345.961 396.124 345.639 392.446 344.975C387.102 344.004 385.099 343.502 383.429 342.088C383.331 353.756 384.254 399.572 385.159 416.225L385.435 417.607C385.834 419.603 388.932 421.301 392.203 422.6C392.991 422.861 393.809 423.024 394.638 423.087C400.69 423.902 407.422 423.123 412.093 417.752C415.086 419.917 433.747 419.073 432.769 415.732C432.167 399.183 431.636 365.748 432.121 350.908C432.121 350.908 431.992 345.818 431.878 341.492C430.016 342.506 427.988 343.176 425.889 343.471C418.533 344.875 411.078 345.699 403.592 345.935Z" fill="#CFCFCF"/>
<path d="M380.837 345.296C380.897 364.572 381.378 383.863 382.027 403.127C382.176 407.549 382.335 411.971 382.576 416.388C382.756 419.704 387.938 419.725 387.757 416.388C386.709 397.145 386.448 377.835 386.156 358.569C386.09 354.145 386.027 349.72 386.018 345.296C386.007 341.962 380.827 341.956 380.837 345.296Z" fill="#211715"/>
<path d="M429.527 350.908C428.953 368.951 429.404 387.063 429.858 405.105C429.967 409.406 430.092 413.707 430.266 418.006C430.396 421.328 435.577 421.345 435.447 418.006C434.714 399.96 434.472 381.871 434.524 363.813C434.537 359.511 434.57 355.208 434.708 350.908C434.814 347.573 429.633 347.577 429.527 350.908Z" fill="#211715"/>
<path d="M409.201 369.287C408.468 383.533 408.078 397.834 407.931 412.1C407.906 414.561 407.819 417.049 408.003 419.503C408.251 422.808 413.433 422.834 413.184 419.503C412.769 413.978 413.15 408.318 413.275 402.788C413.458 394.721 413.698 386.656 413.996 378.591C414.109 375.483 414.221 372.387 414.385 369.287C414.556 365.955 409.375 365.964 409.204 369.287H409.201Z" fill="#211715"/>
<path d="M382.938 418.295C383.586 420.826 385.943 422.465 388.139 423.605C389.454 424.347 390.852 424.929 392.305 425.339C393.7 425.63 395.116 425.811 396.54 425.879C402.08 426.437 407.622 424.847 412.025 421.44C412.507 420.952 412.778 420.294 412.778 419.608C412.778 418.922 412.507 418.263 412.025 417.776C411.532 417.305 410.876 417.042 410.194 417.042C409.512 417.042 408.856 417.305 408.362 417.776C405.159 420.072 401.231 421.128 397.308 420.745C395.311 420.733 393.338 420.31 391.511 419.505C390.532 419.084 389.605 418.553 388.748 417.922C388.494 417.704 388.254 417.469 388.032 417.219C388.142 417.348 388.113 417.288 387.943 417.037C388.023 417.251 388.019 417.212 387.933 416.922C387.103 413.696 382.105 415.063 382.938 418.299V418.295Z" fill="#211715"/>
<path d="M412.401 420.704C415.708 421.529 419.13 421.792 422.525 421.481C426.064 421.509 429.575 420.852 432.866 419.549C433.455 419.198 433.882 418.63 434.056 417.967C434.23 417.303 434.136 416.599 433.796 416.004C433.438 415.422 432.87 415.001 432.21 414.828C431.549 414.655 430.847 414.744 430.251 415.075C429.786 415.291 430.858 414.872 430.336 415.043C430.207 415.083 430.088 415.133 429.962 415.172C429.659 415.276 429.352 415.364 429.042 415.446C428.326 415.633 427.598 415.775 426.868 415.894C426.686 415.924 426.504 415.949 426.322 415.977C426.013 416.026 426.736 415.931 426.225 415.991C425.798 416.04 425.37 416.089 424.943 416.129C424.057 416.216 423.17 416.275 422.28 416.307C420.591 416.382 418.899 416.366 417.212 416.26C416.858 416.237 416.506 416.208 416.155 416.173C415.956 416.153 415.756 416.124 415.557 416.106C416.258 416.17 415.627 416.115 415.496 416.094C414.915 416.005 414.34 415.875 413.777 415.706C413.449 415.616 413.107 415.591 412.769 415.633C412.431 415.675 412.105 415.783 411.809 415.951C411.514 416.119 411.254 416.343 411.045 416.612C410.836 416.88 410.682 417.187 410.591 417.515C410.501 417.843 410.476 418.186 410.518 418.524C410.56 418.861 410.668 419.187 410.836 419.483C411.004 419.779 411.229 420.039 411.497 420.248C411.766 420.457 412.073 420.611 412.401 420.701V420.704Z" fill="#211715"/>
<path d="M386.842 416.967C385.816 416.54 384.702 416.365 383.594 416.457C382.486 416.549 381.417 416.906 380.475 417.497C379.398 418.156 378.498 419.067 377.852 420.152C377.206 421.237 376.834 422.463 376.769 423.724C376.483 426.252 376.912 428.808 378.008 431.103C379.104 433.399 380.821 435.34 382.966 436.707C387.791 439.827 393.366 441.593 399.108 441.821C404.575 442.096 410.482 440.939 412.947 435.448C415.063 430.731 414.211 425.168 413.091 420.313C412.342 417.066 407.345 418.44 408.095 421.69C408.724 424.156 409.041 426.692 409.039 429.238C409.041 430 408.965 430.76 408.814 431.507C408.734 431.859 408.651 432.209 408.542 432.554C408.508 432.661 408.134 433.572 408.383 433.035C406.16 437.828 399.357 437.031 395.067 436.092C390.859 435.17 385.268 433.397 382.906 429.457C381.876 427.68 381.556 425.578 382.013 423.575C382.054 423.209 382.19 422.859 382.408 422.561C382.626 422.263 382.918 422.028 383.255 421.877C383.603 421.717 384.016 421.712 384.356 421.558C384.52 421.484 384.707 421.672 384.226 421.441C387.218 422.876 389.85 418.41 386.842 416.967Z" fill="#211715"/>
<path d="M430.266 418.006C430.37 419.957 430.649 421.895 431.099 423.796C431.163 424.054 431.206 424.317 431.229 424.582C431.229 423.901 431.208 424.429 431.229 424.609C431.267 424.978 431.278 425.349 431.264 425.719C431.251 426.032 431.221 426.345 431.196 426.657C431.151 427.264 431.273 426.389 431.157 426.942C431.09 427.267 431.028 427.589 430.944 427.912C430.918 428.008 430.673 428.737 430.758 428.526C430.844 428.314 430.499 428.978 430.463 429.063C430.29 429.307 430.29 429.319 430.463 429.098C430.391 429.187 430.315 429.273 430.238 429.357C430.056 429.553 429.862 429.737 429.657 429.908C430.063 429.567 429.435 430.037 429.336 430.102C429.102 430.243 428.861 430.361 428.617 430.49C428.343 430.616 428.333 430.62 428.588 430.503C428.478 430.546 428.366 430.585 428.255 430.621C427.731 430.785 427.197 430.915 426.657 431.01C426.467 431.039 426.505 431.034 426.771 430.994C426.576 431.015 426.382 431.033 426.186 431.05C425.864 431.076 425.539 431.098 425.218 431.112C424.615 431.138 424.013 431.139 423.411 431.112C423.121 431.097 422.831 431.067 422.54 431.046C422.23 431.01 422.21 431.01 422.482 431.046C422.353 431.028 422.23 431.01 422.104 430.989C421.438 430.882 420.778 430.742 420.121 430.588C419.459 430.405 418.751 430.493 418.153 430.832C417.556 431.172 417.117 431.734 416.935 432.397C416.752 433.059 416.84 433.767 417.18 434.365C417.519 434.962 418.082 435.4 418.744 435.583C424.106 436.838 431.766 437.021 434.991 431.581C436.23 429.29 436.703 426.663 436.342 424.083C436.179 422.823 435.946 421.578 435.724 420.327C435.675 420.054 435.627 419.781 435.583 419.506C435.561 419.376 435.54 419.247 435.519 419.117C435.476 418.82 435.481 418.863 435.534 419.247C435.435 418.844 435.407 418.427 435.451 418.014C435.451 417.327 435.178 416.668 434.692 416.182C434.206 415.696 433.547 415.424 432.86 415.424C432.173 415.424 431.515 415.696 431.029 416.182C430.543 416.668 430.27 417.327 430.27 418.014L430.266 418.006Z" fill="#211715"/>
<path d="M378.416 326.839C378.416 329.719 378.507 332.596 378.583 335.476C378.665 338.616 379.63 342.295 382.171 344.358C384.355 346.132 387.352 346.637 390.029 347.151C393.939 347.935 397.907 348.389 401.893 348.508C410.151 348.688 418.459 347.377 426.574 345.967C429.635 345.436 433.309 344.524 435.143 341.784C437.258 338.614 436.67 334.005 436.794 330.386C437.331 314.599 438.075 298.766 434.96 283.174C433.575 276.241 431.304 268.633 425.001 264.596C418.901 260.69 411.23 262.537 404.641 263.845C400.302 264.583 396.067 265.838 392.026 267.583C387.892 269.521 384.361 272.544 381.81 276.33C378.072 281.814 374.867 287.7 371.352 293.33C369.581 296.166 374.061 298.769 375.825 295.945C378.749 291.261 381.597 286.533 384.48 281.827C385.887 279.292 387.693 277 389.828 275.039C392.534 272.892 395.663 271.34 399.01 270.487C402.499 269.467 406.088 268.824 409.653 268.14C412.568 267.431 415.585 267.252 418.563 267.611C424.508 268.659 427.359 274.338 428.831 279.663C432.538 293.05 432.367 307.25 431.94 321.006C431.818 324.85 431.671 328.695 431.551 332.533C431.473 334.93 432.199 338.656 429.537 339.818C426.518 341.133 422.921 341.354 419.707 341.844C416.106 342.394 412.494 342.881 408.859 343.14C404.94 343.443 401.002 343.41 397.089 343.039C393.588 342.776 390.129 342.107 386.782 341.045C385.994 340.833 385.316 340.331 384.882 339.64C384.176 338.429 383.794 337.057 383.772 335.656C383.66 332.72 383.605 329.782 383.607 326.841C383.607 323.507 378.427 323.502 378.427 326.841L378.416 326.839Z" fill="#211715"/>
<path d="M420.415 265.666C421.84 263.617 423.466 261.715 425.267 259.988C427.264 257.839 429.093 255.539 430.739 253.11C434.09 248.015 435.919 242.069 436.009 235.97C435.97 230.77 434.616 225.665 432.073 221.129C429.531 216.593 425.882 212.774 421.467 210.028C412.435 204.408 400.929 204.588 391.597 209.416C386.58 212.097 382.347 216.039 379.317 220.854C376.287 225.669 374.565 231.191 374.32 236.874C373.702 249.716 381.913 264.591 396.322 264.154C399.648 264.053 399.662 258.873 396.322 258.974C385.652 259.298 379.684 248.462 379.472 239.002C379.345 234.183 380.484 229.415 382.775 225.173C385.066 220.932 388.428 217.365 392.527 214.828C400.01 210.314 409.726 209.469 417.513 213.714C421.226 215.736 424.38 218.646 426.695 222.185C429.009 225.723 430.412 229.78 430.776 233.992C431.111 239.924 429.478 245.8 426.132 250.709C424.529 252.998 422.757 255.162 420.83 257.185C419.006 258.967 417.37 260.931 415.949 263.048C414.254 265.928 418.731 268.537 420.423 265.662L420.415 265.666Z" fill="#211715"/>
<path d="M374.119 291.59C371.383 289.769 368.29 286.381 364.721 286.995C361.67 287.521 360.075 290.613 358.375 292.902C356.352 295.623 354.356 298.363 352.384 301.123C350.58 303.647 348.419 306.253 349.997 309.491C350.737 310.713 351.698 311.787 352.83 312.659C353.996 313.738 355.177 314.807 356.372 315.857C358.659 317.928 361.075 319.853 363.605 321.62C366.23 323.516 369.441 324.426 372.671 324.188C375.961 323.794 379.119 322.657 381.907 320.864C388.192 316.978 392.715 310.927 396.989 305.037C397.331 304.442 397.425 303.738 397.251 303.074C397.077 302.411 396.65 301.843 396.06 301.493C395.464 301.161 394.762 301.073 394.102 301.246C393.441 301.419 392.873 301.84 392.515 302.422C389.587 306.761 386.144 310.731 382.262 314.243C378.75 317.206 373.219 320.43 368.525 318.5C366.593 317.554 364.805 316.338 363.215 314.89C361.198 313.251 359.253 311.523 357.336 309.769C356.476 309.097 355.675 308.353 354.94 307.547C354.343 306.77 354.984 306.381 355.52 305.622C357.038 303.469 358.576 301.331 360.133 299.206C361.033 297.973 361.94 296.743 362.853 295.517C363.531 294.425 364.303 293.394 365.163 292.438C365.438 292.179 365.448 292.084 365.822 292.078C365.832 292.078 366.898 292.846 367.201 293.06C368.626 294.074 370.051 295.094 371.509 296.064C374.292 297.917 376.889 293.432 374.124 291.59H374.119Z" fill="#211715"/>
<path d="M382.65 222.836C385.367 224.281 387.973 225.926 390.446 227.757L389.254 226.209C390.009 228.783 390.638 231.39 391.542 233.921C391.632 234.249 391.786 234.556 391.995 234.824C392.204 235.093 392.464 235.318 392.76 235.486C393.056 235.654 393.382 235.762 393.72 235.804C394.057 235.846 394.4 235.821 394.728 235.73C395.056 235.64 395.363 235.486 395.631 235.277C395.9 235.068 396.124 234.808 396.292 234.512C396.46 234.216 396.568 233.89 396.61 233.552C396.653 233.215 396.628 232.872 396.537 232.544C395.996 231.029 395.549 229.479 395.112 227.931C394.921 227.248 394.732 226.565 394.545 225.883C394.424 224.968 393.993 224.123 393.324 223.487C390.797 221.541 388.1 219.825 385.267 218.361C384.973 218.189 384.648 218.077 384.311 218.031C383.974 217.984 383.631 218.005 383.302 218.091C382.973 218.178 382.664 218.328 382.393 218.534C382.122 218.739 381.894 218.996 381.722 219.29C381.551 219.584 381.438 219.908 381.392 220.245C381.346 220.583 381.367 220.925 381.453 221.255C381.539 221.584 381.689 221.893 381.895 222.164C382.101 222.435 382.358 222.663 382.652 222.834L382.65 222.836Z" fill="#211715"/>
<path d="M395.347 236.035C395.574 235.869 395.812 235.718 396.058 235.583C396.28 235.463 396.615 235.378 396.201 235.505C396.46 235.423 396.734 235.356 397 235.277C397.562 235.109 396.594 235.269 397.137 235.247C397.418 235.236 397.695 235.217 397.976 235.228C398.235 235.237 398.584 235.286 398.129 235.215C398.618 235.302 399.1 235.425 399.571 235.584C399.847 235.69 399.838 235.684 399.545 235.566C399.674 235.625 399.804 235.688 399.933 235.755C400.121 235.855 400.306 235.962 400.485 236.079C400.604 236.155 400.721 236.235 400.836 236.32C400.594 236.131 400.584 236.131 400.809 236.32C400.959 236.47 401.12 236.607 401.266 236.764C401.363 236.867 401.457 236.974 401.546 237.084C401.384 236.87 401.39 236.885 401.563 237.127C401.684 237.329 401.815 237.515 401.929 237.727C402.003 237.865 402.074 238.003 402.142 238.145C402.039 237.885 402.042 237.895 402.152 238.172C402.241 238.431 402.33 238.69 402.401 238.949C402.472 239.208 402.53 239.482 402.576 239.752C402.468 239.187 402.595 239.994 402.603 240.12C402.618 240.397 402.622 240.673 402.614 240.95C402.614 241.035 402.56 241.841 402.587 241.555C402.614 241.268 402.495 242.061 402.475 242.151C402.415 242.422 402.345 242.691 402.262 242.957C402.179 243.224 402.091 243.486 401.985 243.742C402.187 243.255 401.848 243.988 401.798 244.08C401.669 244.317 401.539 244.55 401.387 244.776C401.302 244.905 401.216 245.035 401.128 245.158C401.275 244.972 401.292 244.95 401.177 245.092C400.826 245.5 400.446 245.882 400.041 246.237C399.9 246.353 399.923 246.334 400.113 246.181C399.984 246.269 399.863 246.353 399.734 246.44C399.509 246.58 399.272 246.693 399.038 246.82C398.87 246.899 398.902 246.884 399.138 246.778C398.996 246.83 398.853 246.877 398.708 246.919C398.416 247 398.119 247.061 397.818 247.102C397.156 247.285 396.593 247.723 396.254 248.32C395.914 248.918 395.824 249.625 396.005 250.288C396.205 250.94 396.646 251.49 397.238 251.827C397.83 252.164 398.529 252.262 399.191 252.101C404.257 251.364 407.408 246.176 407.769 241.436C407.999 239.022 407.385 236.603 406.031 234.591C404.677 232.579 402.667 231.1 400.344 230.405C399.068 230.034 397.726 229.946 396.412 230.148C395.098 230.349 393.844 230.834 392.737 231.57C392.156 231.928 391.735 232.496 391.562 233.156C391.389 233.816 391.477 234.517 391.809 235.114C392.161 235.701 392.729 236.128 393.391 236.302C394.053 236.475 394.757 236.383 395.352 236.044L395.347 236.035Z" fill="#211715"/>
<path d="M398.945 251.103C400.167 253.97 401.674 256.707 403.443 259.273C405.218 262.021 407.256 264.59 409.53 266.942C409.769 267.189 410.055 267.386 410.371 267.522C410.687 267.658 411.027 267.729 411.371 267.732C411.715 267.735 412.056 267.67 412.375 267.54C412.693 267.409 412.982 267.217 413.225 266.974C413.469 266.73 413.661 266.441 413.791 266.123C413.921 265.805 413.987 265.463 413.984 265.12C413.981 264.776 413.909 264.436 413.774 264.12C413.638 263.804 413.441 263.518 413.193 263.279C412.228 262.302 411.32 261.271 410.473 260.19C410.433 260.138 409.989 259.569 410.344 260.031C410.231 259.885 410.121 259.739 410.011 259.593C409.764 259.266 409.521 258.937 409.282 258.606C408.818 257.964 408.366 257.317 407.926 256.663C407.075 255.392 406.264 254.096 405.509 252.766C405.171 252.169 404.844 251.567 404.536 250.953C404.402 250.687 404.272 250.419 404.148 250.15C404.076 249.997 404.009 249.844 403.938 249.691C403.725 249.233 404.152 250.209 403.952 249.729C403.755 249.075 403.315 248.523 402.721 248.185C402.128 247.848 401.428 247.751 400.766 247.915C400.106 248.103 399.547 248.542 399.208 249.138C398.868 249.733 398.777 250.439 398.953 251.102L398.945 251.103Z" fill="#211715"/>
<path d="M382.344 233.864C381.959 231.398 382.415 228.875 383.639 226.7C384.695 224.518 386.087 222.514 387.762 220.762C391.489 217.063 395.937 214.17 400.83 212.263C401.481 212.062 402.031 211.62 402.368 211.028C402.705 210.436 402.803 209.738 402.644 209.076C402.458 208.415 402.02 207.853 401.423 207.514C400.827 207.174 400.12 207.084 399.457 207.262C393.584 209.739 387.877 212.882 383.563 217.678C379.464 222.235 375.802 228.937 377.346 235.237C378.141 238.475 383.138 237.102 382.343 233.86L382.344 233.864Z" fill="#211715"/>
<path d="M434.735 237.202C434.738 237.476 434.682 237.748 434.572 237.999C434.461 238.251 434.299 238.476 434.095 238.66C430.926 241.674 427.345 244.222 423.459 246.23C417.192 249.117 410.364 250.581 403.464 250.517C398.554 250.427 393.682 249.644 388.991 248.193C384.619 246.554 380.558 244.183 376.982 241.181C376.484 240.78 376.082 240.273 375.806 239.697C375.53 239.121 375.388 238.49 375.389 237.851V233.101C375.389 232.754 375.481 232.413 375.655 232.113C375.83 231.814 376.081 231.565 376.383 231.394C376.685 231.223 377.027 231.135 377.374 231.139C377.721 231.143 378.061 231.239 378.359 231.417C381.551 233.33 385.093 235.932 389 237.39C393.857 239.177 398.987 240.113 404.162 240.156C409.598 239.958 414.927 238.581 419.778 236.122C423.126 234.606 426.318 232.03 429.453 229.868C429.974 229.534 430.576 229.347 431.194 229.327C431.813 229.307 432.426 229.455 432.967 229.754C433.508 230.054 433.959 230.495 434.27 231.03C434.581 231.565 434.742 232.174 434.735 232.793V237.202Z" fill="#2D0E37"/>
<path d="M432.144 237.202C432.185 236.796 432.547 236.737 431.929 237.125C431.745 237.264 431.572 237.416 431.411 237.581C430.99 237.95 430.566 238.315 430.139 238.678C429.249 239.429 428.343 240.158 427.398 240.84C425.348 242.346 423.129 243.609 420.787 244.604C416.402 246.414 411.756 247.515 407.025 247.865C402.861 248.119 398.681 247.826 394.592 246.996C389.513 245.96 384.729 243.809 380.583 240.699C379.384 239.826 378.047 239.115 377.982 237.523C377.93 236.228 378.101 234.908 377.982 233.62C377.92 232.955 377.982 233.132 377.579 233.685C377.37 233.97 376.471 233.11 377.493 233.913C377.707 234.062 377.928 234.2 378.157 234.326C378.766 234.706 379.371 235.093 379.97 235.478C382.186 236.948 384.518 238.235 386.942 239.327C396.036 243.313 406.29 243.759 415.695 240.577C418.333 239.679 420.885 238.543 423.317 237.183C424.655 236.406 425.934 235.524 427.203 234.628C427.84 234.176 428.472 233.721 429.108 233.264C429.66 232.761 430.276 232.333 430.94 231.991C432.865 231.377 432.144 236.18 432.144 237.202C432.144 240.535 437.325 240.541 437.325 237.202C437.325 233.834 437.861 230.034 434.71 227.809C433.67 227.091 432.432 226.719 431.169 226.745C429.906 226.771 428.684 227.193 427.674 227.953C425.111 229.692 422.698 231.649 419.967 233.133C414.949 235.973 409.294 237.495 403.53 237.558C397.96 237.547 392.463 236.287 387.445 233.87C384.817 232.521 382.452 230.755 379.885 229.31C379.299 228.938 378.638 228.701 377.949 228.619C377.26 228.537 376.561 228.61 375.904 228.834C375.247 229.058 374.649 229.426 374.154 229.912C373.659 230.398 373.279 230.989 373.042 231.641C372.733 233.111 372.65 234.619 372.798 236.114C372.604 238.019 373 239.937 373.932 241.61C375.357 243.756 378.094 245.348 380.222 246.72C382.746 248.361 385.459 249.694 388.301 250.688C393.613 252.4 399.17 253.226 404.75 253.132C410.906 253.05 416.988 251.779 422.662 249.389C425.747 248.096 428.65 246.403 431.294 244.355C433.755 242.468 436.993 240.524 437.325 237.202C437.32 236.516 437.046 235.86 436.561 235.375C436.076 234.89 435.42 234.616 434.734 234.611C434.052 234.626 433.402 234.904 432.919 235.386C432.437 235.869 432.159 236.519 432.144 237.202Z" fill="#211715"/>
<path d="M399.126 205.118C396.094 203.355 393.122 201.307 389.472 202.618C387.887 203.303 386.367 204.126 384.927 205.079L380.074 207.884L370.273 213.551L365.629 216.23C363.756 217.158 361.965 218.241 360.273 219.468C357.871 221.478 357.888 224.236 357.888 227.101C357.888 229.966 357.888 232.799 357.888 235.649C357.888 238.206 357.416 241.372 358.486 243.755C359.571 246.171 361.956 247.238 364.125 248.497C368.22 250.873 372.314 253.248 376.407 255.621C379.301 257.289 381.913 252.814 379.022 251.147C376.108 249.466 373.198 247.778 370.29 246.083L364.865 242.933C364.146 242.515 363.287 242.202 363.087 241.31C362.977 240.309 362.971 239.3 363.068 238.298C363.068 235.831 363.068 233.366 363.068 230.901V227.518C362.983 226.483 362.987 225.443 363.08 224.409C363.296 223.235 364.54 222.855 365.481 222.309L370.165 219.6L378.765 214.629L388.041 209.266C389.206 208.591 390.715 207.295 392.135 207.367C393.589 207.442 395.278 208.885 396.507 209.599C399.394 211.283 402.005 206.804 399.122 205.125L399.126 205.118Z" fill="#211715"/>
</g>
<defs>
<clipPath id="clip0_165_11">
<rect width="500" height="500" fill="white"/>
</clipPath>
</defs>
</svg>
