<svg id="svg" version="1.1" xmlns="http://www.w3.org/2000/svg" xmlns:xlink="http://www.w3.org/1999/xlink" width="400" height="400" viewBox="0, 0, 400,400"><g id="svgg"><path id="path1" d="M51.500 172.181 C 48.540 173.889,41.776 180.809,37.197 186.815 C 19.423 210.129,18.526 235.022,34.732 255.200 C 47.329 270.884,65.944 277.158,87.200 272.884 C 94.667 271.383,104.003 267.791,108.729 264.601 C 109.219 264.270,109.716 264.000,109.833 264.000 C 110.257 264.000,109.766 263.152,103.702 253.400 C 96.742 242.207,97.421 243.243,97.239 243.535 C 96.812 244.219,89.261 247.499,85.900 248.460 C 69.747 253.078,56.859 248.113,49.924 234.600 C 43.850 222.764,48.286 208.694,62.684 194.128 L 65.218 191.565 62.718 187.532 C 55.428 175.771,52.871 171.724,52.695 171.667 C 52.588 171.632,52.050 171.864,51.500 172.181 M249.385 238.026 C 208.977 276.401,203.691 281.462,204.605 280.897 C 204.746 280.809,205.156 280.706,205.515 280.666 C 210.312 280.137,220.621 274.940,226.800 269.934 C 230.909 266.606,292.617 204.542,293.358 202.993 C 294.411 200.791,295.176 195.400,294.435 195.400 C 294.345 195.400,274.072 214.582,249.385 238.026 M336.024 251.457 L 307.948 275.500 309.424 275.651 C 330.725 277.824,356.236 258.931,362.599 236.271 C 363.479 233.135,364.486 227.344,364.140 227.407 C 364.118 227.411,351.466 238.234,336.024 251.457 " stroke="none" fill="#957bb3" fill-rule="evenodd"></path><path id="path2" d="M222.314 120.914 C 222.141 121.087,221.997 121.155,221.994 121.064 C 221.990 120.974,221.878 121.040,221.744 121.211 C 221.610 121.382,221.005 121.850,220.400 122.252 C 219.795 122.654,214.682 127.605,209.038 133.255 L 198.776 143.526 205.210 153.866 L 211.643 164.206 210.892 165.153 C 210.479 165.674,215.783 160.471,222.679 153.591 L 235.218 141.081 228.959 131.008 C 225.517 125.468,222.722 120.859,222.750 120.767 C 222.827 120.511,222.662 120.567,222.314 120.914 M173.967 129.533 C 174.146 129.854,171.954 131.575,155.863 143.746 C 155.316 144.160,155.160 144.194,154.763 143.987 C 154.508 143.854,154.346 143.781,154.403 143.823 C 154.459 143.865,156.401 145.772,158.719 148.060 L 162.932 152.220 172.516 144.932 C 181.666 137.974,182.118 137.658,182.500 137.963 C 182.720 138.138,180.876 136.238,178.402 133.741 C 173.837 129.133,173.636 128.942,173.967 129.533 M329.967 182.276 C 324.112 187.273,321.028 190.034,321.017 190.288 C 321.006 190.528,321.692 191.338,322.817 192.416 L 324.634 194.157 325.267 193.499 C 326.380 192.340,342.592 178.600,342.846 178.600 C 343.111 178.600,340.730 176.113,339.600 175.211 L 338.900 174.652 329.967 182.276 M266.516 236.616 L 257.364 244.457 259.313 246.413 C 261.158 248.265,261.278 248.349,261.581 248.005 C 261.952 247.582,278.485 233.438,279.141 232.981 C 279.577 232.678,279.560 232.653,277.626 230.726 L 275.669 228.776 266.516 236.616 M157.010 232.513 C 157.316 232.881,158.318 231.866,147.736 241.904 L 139.972 249.268 143.435 252.735 C 145.339 254.641,146.957 256.178,147.031 256.151 C 147.104 256.123,150.960 252.500,155.599 248.100 C 161.179 242.807,164.169 240.106,164.433 240.118 C 164.700 240.129,163.526 238.829,160.868 236.168 C 157.280 232.577,156.267 231.616,157.010 232.513 " stroke="none" fill="#48245c" fill-rule="evenodd"></path><path id="path3" d="M248.900 111.605 C 241.851 112.027,235.027 113.877,228.574 117.113 C 225.934 118.437,222.800 120.343,222.800 120.624 C 222.800 120.734,222.709 120.767,222.598 120.699 C 222.487 120.630,222.656 120.962,222.973 121.437 C 223.291 121.912,226.090 126.395,229.194 131.400 C 235.879 142.178,235.102 141.187,236.255 140.409 C 251.103 130.389,269.738 135.956,287.066 155.589 C 291.394 160.492,292.461 161.364,295.173 162.206 C 303.046 164.651,310.672 159.046,310.693 150.800 C 310.706 145.921,309.466 143.941,301.006 135.327 C 286.152 120.203,271.403 112.598,255.000 111.604 C 253.185 111.494,251.610 111.416,251.500 111.432 C 251.390 111.448,250.220 111.525,248.900 111.605 M172.800 144.733 C 167.685 148.629,163.365 151.898,163.200 151.999 C 162.964 152.144,164.143 153.428,168.750 158.041 L 174.600 163.899 183.099 155.401 L 191.599 146.903 187.550 142.838 C 185.322 140.602,183.185 138.521,182.800 138.212 L 182.100 137.651 172.800 144.733 M328.500 171.736 C 321.365 173.333,317.234 180.451,319.465 187.303 C 319.955 188.805,320.873 190.423,321.030 190.060 C 321.068 189.970,325.082 186.488,329.950 182.321 C 334.818 178.154,338.800 174.671,338.800 174.582 C 338.800 174.067,335.496 172.312,333.754 171.902 C 332.594 171.628,329.428 171.528,328.500 171.736 M265.349 235.351 C 257.349 243.352,256.744 244.018,257.202 244.301 C 257.352 244.394,267.616 235.786,275.491 228.964 C 275.660 228.817,274.103 227.000,273.807 227.000 C 273.747 227.000,269.941 230.758,265.349 235.351 M143.701 236.199 L 135.304 244.598 137.600 246.900 C 138.862 248.166,139.951 249.179,140.020 249.151 C 140.300 249.036,157.199 232.887,157.200 232.733 C 157.200 232.481,152.567 227.800,152.316 227.800 C 152.196 227.800,148.320 231.579,143.701 236.199 " stroke="none" fill="#2b1f4d" fill-rule="evenodd"></path><path id="path4" d="M152.750 114.132 C 153.261 114.339,152.775 114.737,142.250 122.729 C 136.338 127.218,130.720 131.487,129.766 132.216 L 128.032 133.541 130.866 133.448 C 138.056 133.212,144.629 135.864,152.303 142.098 C 153.590 143.144,154.729 144.000,154.834 144.000 C 154.938 144.000,154.974 144.080,154.914 144.177 C 154.854 144.275,154.961 144.473,155.152 144.618 C 155.420 144.820,155.448 144.822,155.273 144.623 C 155.094 144.421,155.845 143.759,158.773 141.540 C 160.823 139.985,165.126 136.721,168.335 134.285 L 174.170 129.856 173.807 129.260 C 173.121 128.132,166.987 122.837,163.259 120.156 C 160.250 117.991,153.223 113.936,152.620 114.016 C 152.554 114.024,152.613 114.077,152.750 114.132 M177.550 164.753 L 156.407 185.900 162.884 196.300 L 169.361 206.700 168.635 207.500 C 168.236 207.940,177.295 198.940,188.767 187.500 C 200.239 176.060,210.078 166.137,210.631 165.448 L 211.637 164.197 205.396 154.148 C 201.964 148.622,199.051 143.989,198.924 143.853 C 198.744 143.662,193.951 148.349,177.550 164.753 M102.095 152.813 C 101.218 153.700,98.948 155.603,97.050 157.043 C 94.220 159.191,92.889 160.364,93.750 159.952 C 96.116 158.821,96.421 158.580,100.100 154.954 C 102.190 152.894,103.853 151.207,103.795 151.204 C 103.738 151.202,102.973 151.926,102.095 152.813 M342.700 178.200 C 342.901 178.422,342.960 178.600,342.833 178.600 C 342.501 178.600,324.800 193.782,324.800 194.067 C 324.800 194.199,325.709 195.206,326.820 196.304 C 328.846 198.306,331.460 201.273,332.528 202.783 C 332.843 203.228,333.167 203.593,333.249 203.596 C 333.331 203.598,337.450 200.131,342.403 195.891 C 348.075 191.035,351.499 188.235,351.654 188.325 C 351.789 188.404,351.757 188.296,351.583 188.084 C 351.409 187.873,350.545 186.800,349.663 185.700 C 348.053 183.692,342.678 177.800,342.457 177.800 C 342.391 177.800,342.501 177.980,342.700 178.200 M270.486 240.311 C 265.654 244.443,261.611 247.952,261.501 248.111 C 261.150 248.620,270.344 257.655,270.777 257.226 C 272.276 255.741,288.516 242.107,288.754 242.133 C 288.924 242.151,286.957 240.059,284.383 237.483 C 281.809 234.907,279.606 232.800,279.488 232.800 C 279.369 232.800,275.318 236.180,270.486 240.311 M155.533 248.146 L 146.967 256.284 152.633 261.904 C 157.232 266.465,162.985 271.600,163.496 271.600 C 163.544 271.600,167.567 267.815,172.436 263.188 C 178.821 257.122,181.388 254.802,181.645 254.870 C 181.840 254.921,181.950 254.881,181.888 254.781 C 181.827 254.682,181.685 254.600,181.574 254.600 C 181.259 254.600,177.575 252.120,175.851 250.748 C 174.998 250.069,172.131 247.373,169.480 244.756 C 166.829 242.140,164.534 240.002,164.380 240.004 C 164.226 240.006,160.245 243.670,155.533 248.146 " stroke="none" fill="#592b63" fill-rule="evenodd"></path><path id="path0" d="M125.900 109.694 C 116.752 110.946,108.142 114.644,101.100 120.346 C 97.354 123.379,79.380 141.679,78.646 143.207 C 75.172 150.434,79.123 158.891,86.726 160.502 C 88.943 160.972,91.430 160.813,92.834 160.113 C 93.217 159.922,93.365 159.906,93.281 160.064 C 93.212 160.194,93.368 160.064,93.628 159.776 C 93.888 159.487,95.562 158.150,97.350 156.803 C 100.114 154.721,101.743 153.228,108.250 146.816 C 112.457 142.670,116.395 138.916,117.000 138.474 C 119.758 136.458,122.964 134.918,126.087 134.109 L 127.878 133.645 140.439 124.105 C 147.348 118.858,153.000 114.498,153.000 114.415 C 153.000 113.596,144.964 110.917,139.700 109.980 C 136.612 109.431,128.983 109.273,125.900 109.694 M54.354 170.962 C 53.614 171.162,52.957 171.377,52.894 171.440 C 52.831 171.503,55.514 175.952,58.856 181.327 C 62.198 186.702,65.024 191.266,65.134 191.468 C 65.595 192.309,68.370 188.314,69.071 185.800 C 71.566 176.852,63.325 168.544,54.354 170.962 M280.100 185.728 C 276.448 186.500,279.377 183.793,244.100 218.998 C 211.388 251.643,211.605 251.432,208.800 253.250 C 200.165 258.848,192.327 259.541,183.233 255.509 C 182.317 255.102,181.462 254.810,181.333 254.860 C 181.099 254.951,163.747 271.374,163.647 271.600 C 163.617 271.666,164.562 272.360,165.747 273.143 C 174.873 279.172,183.792 282.015,193.700 282.054 C 199.241 282.075,203.818 281.436,204.659 280.522 C 205.134 280.007,292.113 197.446,293.622 196.079 L 294.529 195.257 294.200 194.079 C 292.515 188.034,286.380 184.401,280.100 185.728 M130.700 211.620 C 104.295 238.046,102.328 239.955,99.357 242.052 C 98.391 242.734,97.600 243.363,97.600 243.450 C 97.600 243.562,109.686 263.173,110.125 263.772 C 110.214 263.893,114.587 260.830,116.600 259.236 C 118.371 257.834,164.752 211.771,167.988 208.200 L 169.348 206.700 162.924 196.354 C 159.391 190.664,156.455 186.007,156.400 186.004 C 156.345 186.002,144.780 197.529,130.700 211.620 M342.290 195.964 L 333.280 203.700 334.447 205.500 C 342.778 218.347,342.341 230.154,333.146 240.607 C 321.054 254.354,305.804 255.285,290.316 243.222 C 289.446 242.544,288.664 242.014,288.579 242.045 C 288.222 242.173,270.695 257.269,270.641 257.495 C 270.608 257.631,271.472 258.588,272.559 259.621 C 281.298 267.924,296.439 274.917,306.817 275.443 L 307.935 275.500 335.876 251.600 C 351.244 238.455,363.888 227.718,363.975 227.739 C 364.444 227.854,364.407 219.116,363.926 216.000 C 362.638 207.649,359.155 199.112,353.849 191.300 C 352.361 189.109,351.634 188.187,351.415 188.214 C 351.352 188.222,347.245 191.709,342.290 195.964 " stroke="none" fill="#af4092" fill-rule="evenodd"></path><path id="path1" d="M51.500 172.181 C 48.540 173.889,41.776 180.809,37.197 186.815 C 19.423 210.129,18.526 235.022,34.732 255.200 C 47.329 270.884,65.944 277.158,87.200 272.884 C 94.667 271.383,104.003 267.791,108.729 264.601 C 109.219 264.270,109.716 264.000,109.833 264.000 C 110.257 264.000,109.766 263.152,103.702 253.400 C 96.742 242.207,97.421 243.243,97.239 243.535 C 96.812 244.219,89.261 247.499,85.900 248.460 C 69.747 253.078,56.859 248.113,49.924 234.600 C 43.850 222.764,48.286 208.694,62.684 194.128 L 65.218 191.565 62.718 187.532 C 55.428 175.771,52.871 171.724,52.695 171.667 C 52.588 171.632,52.050 171.864,51.500 172.181 M249.385 238.026 C 208.977 276.401,203.691 281.462,204.605 280.897 C 204.746 280.809,205.156 280.706,205.515 280.666 C 210.312 280.137,220.621 274.940,226.800 269.934 C 230.909 266.606,292.617 204.542,293.358 202.993 C 294.411 200.791,295.176 195.400,294.435 195.400 C 294.345 195.400,274.072 214.582,249.385 238.026 M336.024 251.457 L 307.948 275.500 309.424 275.651 C 330.725 277.824,356.236 258.931,362.599 236.271 C 363.479 233.135,364.486 227.344,364.140 227.407 C 364.118 227.411,351.466 238.234,336.024 251.457 " stroke="none" fill="#957bb3" fill-rule="evenodd"></path><path id="path2" d="M222.314 120.914 C 222.141 121.087,221.997 121.155,221.994 121.064 C 221.990 120.974,221.878 121.040,221.744 121.211 C 221.610 121.382,221.005 121.850,220.400 122.252 C 219.795 122.654,214.682 127.605,209.038 133.255 L 198.776 143.526 205.210 153.866 L 211.643 164.206 210.892 165.153 C 210.479 165.674,215.783 160.471,222.679 153.591 L 235.218 141.081 228.959 131.008 C 225.517 125.468,222.722 120.859,222.750 120.767 C 222.827 120.511,222.662 120.567,222.314 120.914 M173.967 129.533 C 174.146 129.854,171.954 131.575,155.863 143.746 C 155.316 144.160,155.160 144.194,154.763 143.987 C 154.508 143.854,154.346 143.781,154.403 143.823 C 154.459 143.865,156.401 145.772,158.719 148.060 L 162.932 152.220 172.516 144.932 C 181.666 137.974,182.118 137.658,182.500 137.963 C 182.720 138.138,180.876 136.238,178.402 133.741 C 173.837 129.133,173.636 128.942,173.967 129.533 M329.967 182.276 C 324.112 187.273,321.028 190.034,321.017 190.288 C 321.006 190.528,321.692 191.338,322.817 192.416 L 324.634 194.157 325.267 193.499 C 326.380 192.340,342.592 178.600,342.846 178.600 C 343.111 178.600,340.730 176.113,339.600 175.211 L 338.900 174.652 329.967 182.276 M266.516 236.616 L 257.364 244.457 259.313 246.413 C 261.158 248.265,261.278 248.349,261.581 248.005 C 261.952 247.582,278.485 233.438,279.141 232.981 C 279.577 232.678,279.560 232.653,277.626 230.726 L 275.669 228.776 266.516 236.616 M157.010 232.513 C 157.316 232.881,158.318 231.866,147.736 241.904 L 139.972 249.268 143.435 252.735 C 145.339 254.641,146.957 256.178,147.031 256.151 C 147.104 256.123,150.960 252.500,155.599 248.100 C 161.179 242.807,164.169 240.106,164.433 240.118 C 164.700 240.129,163.526 238.829,160.868 236.168 C 157.280 232.577,156.267 231.616,157.010 232.513 " stroke="none" fill="#48245c" fill-rule="evenodd"></path><path id="path3" d="M248.900 111.605 C 241.851 112.027,235.027 113.877,228.574 117.113 C 225.934 118.437,222.800 120.343,222.800 120.624 C 222.800 120.734,222.709 120.767,222.598 120.699 C 222.487 120.630,222.656 120.962,222.973 121.437 C 223.291 121.912,226.090 126.395,229.194 131.400 C 235.879 142.178,235.102 141.187,236.255 140.409 C 251.103 130.389,269.738 135.956,287.066 155.589 C 291.394 160.492,292.461 161.364,295.173 162.206 C 303.046 164.651,310.672 159.046,310.693 150.800 C 310.706 145.921,309.466 143.941,301.006 135.327 C 286.152 120.203,271.403 112.598,255.000 111.604 C 253.185 111.494,251.610 111.416,251.500 111.432 C 251.390 111.448,250.220 111.525,248.900 111.605 M172.800 144.733 C 167.685 148.629,163.365 151.898,163.200 151.999 C 162.964 152.144,164.143 153.428,168.750 158.041 L 174.600 163.899 183.099 155.401 L 191.599 146.903 187.550 142.838 C 185.322 140.602,183.185 138.521,182.800 138.212 L 182.100 137.651 172.800 144.733 M328.500 171.736 C 321.365 173.333,317.234 180.451,319.465 187.303 C 319.955 188.805,320.873 190.423,321.030 190.060 C 321.068 189.970,325.082 186.488,329.950 182.321 C 334.818 178.154,338.800 174.671,338.800 174.582 C 338.800 174.067,335.496 172.312,333.754 171.902 C 332.594 171.628,329.428 171.528,328.500 171.736 M265.349 235.351 C 257.349 243.352,256.744 244.018,257.202 244.301 C 257.352 244.394,267.616 235.786,275.491 228.964 C 275.660 228.817,274.103 227.000,273.807 227.000 C 273.747 227.000,269.941 230.758,265.349 235.351 M143.701 236.199 L 135.304 244.598 137.600 246.900 C 138.862 248.166,139.951 249.179,140.020 249.151 C 140.300 249.036,157.199 232.887,157.200 232.733 C 157.200 232.481,152.567 227.800,152.316 227.800 C 152.196 227.800,148.320 231.579,143.701 236.199 " stroke="none" fill="#2b1f4d" fill-rule="evenodd"></path><path id="path4" d="M152.750 114.132 C 153.261 114.339,152.775 114.737,142.250 122.729 C 136.338 127.218,130.720 131.487,129.766 132.216 L 128.032 133.541 130.866 133.448 C 138.056 133.212,144.629 135.864,152.303 142.098 C 153.590 143.144,154.729 144.000,154.834 144.000 C 154.938 144.000,154.974 144.080,154.914 144.177 C 154.854 144.275,154.961 144.473,155.152 144.618 C 155.420 144.820,155.448 144.822,155.273 144.623 C 155.094 144.421,155.845 143.759,158.773 141.540 C 160.823 139.985,165.126 136.721,168.335 134.285 L 174.170 129.856 173.807 129.260 C 173.121 128.132,166.987 122.837,163.259 120.156 C 160.250 117.991,153.223 113.936,152.620 114.016 C 152.554 114.024,152.613 114.077,152.750 114.132 M177.550 164.753 L 156.407 185.900 162.884 196.300 L 169.361 206.700 168.635 207.500 C 168.236 207.940,177.295 198.940,188.767 187.500 C 200.239 176.060,210.078 166.137,210.631 165.448 L 211.637 164.197 205.396 154.148 C 201.964 148.622,199.051 143.989,198.924 143.853 C 198.744 143.662,193.951 148.349,177.550 164.753 M102.095 152.813 C 101.218 153.700,98.948 155.603,97.050 157.043 C 94.220 159.191,92.889 160.364,93.750 159.952 C 96.116 158.821,96.421 158.580,100.100 154.954 C 102.190 152.894,103.853 151.207,103.795 151.204 C 103.738 151.202,102.973 151.926,102.095 152.813 M342.700 178.200 C 342.901 178.422,342.960 178.600,342.833 178.600 C 342.501 178.600,324.800 193.782,324.800 194.067 C 324.800 194.199,325.709 195.206,326.820 196.304 C 328.846 198.306,331.460 201.273,332.528 202.783 C 332.843 203.228,333.167 203.593,333.249 203.596 C 333.331 203.598,337.450 200.131,342.403 195.891 C 348.075 191.035,351.499 188.235,351.654 188.325 C 351.789 188.404,351.757 188.296,351.583 188.084 C 351.409 187.873,350.545 186.800,349.663 185.700 C 348.053 183.692,342.678 177.800,342.457 177.800 C 342.391 177.800,342.501 177.980,342.700 178.200 M270.486 240.311 C 265.654 244.443,261.611 247.952,261.501 248.111 C 261.150 248.620,270.344 257.655,270.777 257.226 C 272.276 255.741,288.516 242.107,288.754 242.133 C 288.924 242.151,286.957 240.059,284.383 237.483 C 281.809 234.907,279.606 232.800,279.488 232.800 C 279.369 232.800,275.318 236.180,270.486 240.311 M155.533 248.146 L 146.967 256.284 152.633 261.904 C 157.232 266.465,162.985 271.600,163.496 271.600 C 163.544 271.600,167.567 267.815,172.436 263.188 C 178.821 257.122,181.388 254.802,181.645 254.870 C 181.840 254.921,181.950 254.881,181.888 254.781 C 181.827 254.682,181.685 254.600,181.574 254.600 C 181.259 254.600,177.575 252.120,175.851 250.748 C 174.998 250.069,172.131 247.373,169.480 244.756 C 166.829 242.140,164.534 240.002,164.380 240.004 C 164.226 240.006,160.245 243.670,155.533 248.146 " stroke="none" fill="#592b63" fill-rule="evenodd"></path></g></svg>