<svg width="1400" height="434" viewBox="0 0 1400 434" fill="none" xmlns="http://www.w3.org/2000/svg">
<g clip-path="url(#clip0_85_213)">
<path d="M285.531 176.759L323.889 197.365C328.586 200.309 331.717 204.725 331.717 209.876V251.825C331.717 256.976 328.586 262.128 323.889 264.336L285.531 285.678C280.834 288.622 274.572 288.622 269.875 285.678L231.517 265.072C226.82 262.128 223.689 257.712 223.689 252.561V210.612C223.689 205.461 226.82 200.309 231.517 198.101L269.875 177.495C274.572 173.815 280.834 173.815 285.531 176.759Z" fill="#2F4BFF"/>
<path d="M396.691 103.901C395.125 103.165 394.342 103.165 392.777 103.901L359.898 121.564C358.333 122.3 358.333 123.772 358.333 124.508V159.833C358.333 161.304 359.116 162.04 359.898 162.776L392.777 180.439C394.342 181.175 395.125 181.175 396.691 180.439L429.569 162.776C431.134 162.04 431.134 160.569 431.134 159.833V124.508C431.134 123.036 430.352 122.3 429.569 121.564L396.691 103.901ZM401.387 98.0139L434.266 115.676C438.18 117.884 440.528 121.564 440.528 125.244V160.569C440.528 164.248 438.18 167.928 434.266 170.136L401.387 187.798C397.473 190.006 393.559 190.006 389.645 187.798L356.767 170.136C352.853 167.928 350.505 164.248 350.505 160.569V125.244C350.505 121.564 352.853 117.884 356.767 115.676L389.645 98.0139C392.777 95.8061 397.473 95.8061 401.387 98.0139ZM418.609 298.925L385.731 316.587V351.912L418.609 369.575L451.487 351.912V316.587L418.609 298.925ZM459.316 303.34C464.012 306.284 467.144 310.7 467.144 315.851V351.176C467.144 356.328 464.012 361.479 459.316 363.687L426.437 382.822C421.741 385.765 415.478 385.765 410.781 382.822L377.903 365.159C373.206 362.215 370.075 357.8 370.075 352.648V317.323C370.075 312.172 373.206 307.02 377.903 304.812L410.781 287.15C415.478 284.206 421.741 284.206 426.437 287.15L459.316 303.34ZM168.109 59.0092V79.6154L187.68 89.9186L207.25 79.6154V59.0092L187.68 48.7061L168.109 59.0092ZM216.644 47.2342C220.558 49.442 222.906 53.1217 222.906 56.8014V81.8232C222.906 85.5029 220.558 89.1826 216.644 91.3904L193.159 103.901C189.245 106.109 185.331 106.109 181.417 103.901L157.933 91.3904C154.802 89.1826 152.453 85.5029 152.453 81.8232V56.8014C152.453 53.1217 154.802 49.442 158.716 47.2342L182.2 34.7232C186.114 32.5154 190.028 32.5154 193.942 34.7232L216.644 47.2342ZM175.937 338.665L152.453 351.176V376.198L175.937 388.709L199.422 376.198V351.176L175.937 338.665ZM179.852 332.042L203.336 344.553C205.684 346.025 207.25 348.233 207.25 351.176V376.198C207.25 379.142 205.684 381.35 203.336 382.822L179.852 395.333C177.503 396.804 174.372 396.804 172.023 395.333L148.539 382.822C146.191 381.35 144.625 379.142 144.625 376.198V351.176C144.625 348.233 146.191 346.025 148.539 344.553L172.023 332.042C174.372 330.57 177.503 330.57 179.852 332.042Z" fill="white"/>
<path d="M279.269 337.93L248.739 366.631C247.956 367.367 247.173 367.367 245.608 367.367H202.553C200.205 367.367 198.639 365.895 198.639 363.687C198.639 361.48 200.205 360.008 202.553 360.008H244.042L273.006 332.778V301.133C273.006 298.925 274.572 297.453 276.92 297.453C279.269 297.453 280.834 298.925 280.834 301.133V330.57H363.812C366.161 330.57 367.727 332.042 367.727 334.25C367.727 336.458 366.161 337.93 363.812 337.93H279.269ZM273.789 137.019L220.558 93.5983C218.992 92.1265 218.992 89.9187 219.775 88.4468C221.341 86.9749 223.689 86.9749 225.255 87.7108L279.269 131.131H340.328C342.677 131.131 344.242 132.603 344.242 134.811C344.242 137.019 342.677 138.491 340.328 138.491H281.617V164.984C281.617 167.192 280.052 168.664 277.703 168.664C275.355 168.664 273.789 167.192 273.789 164.984V137.019ZM473.406 315.852C471.058 315.852 469.492 314.38 469.492 312.172C469.492 309.964 471.058 308.492 473.406 308.492H516.461C518.809 308.492 520.375 309.964 520.375 312.172C520.375 314.38 518.809 315.852 516.461 315.852H473.406ZM449.139 115.676C447.573 117.148 445.225 117.148 443.659 116.412C442.094 114.941 442.094 112.733 442.877 111.261L489.845 59.7452C491.411 58.2733 493.759 58.2733 495.325 59.0093C496.891 60.4812 496.891 62.689 496.108 64.1608L449.139 115.676ZM160.281 212.82C157.933 212.82 156.367 211.348 156.367 209.141C156.367 206.933 157.933 205.461 160.281 205.461H215.078C217.427 205.461 218.992 206.933 218.992 209.141C218.992 211.348 217.427 212.82 215.078 212.82H160.281ZM422.523 279.055C422.523 281.262 420.958 282.734 418.609 282.734C416.261 282.734 414.695 281.262 414.695 279.055V231.219C414.695 229.011 416.261 227.539 418.609 227.539C420.958 227.539 422.523 229.011 422.523 231.219V279.055Z" fill="white"/>
</g>
<defs>
<clipPath id="clip0_85_213">
<rect width="1400" height="434" fill="white"/>
</clipPath>
</defs>
</svg>
