<svg width="1544" height="814" viewBox="0 0 1544 814" fill="none" xmlns="http://www.w3.org/2000/svg">
<g clip-path="url(#clip0_85_209)">
<path d="M325.446 612.439C320.307 609.858 316.182 605.14 314.044 599.396C313.308 597.418 312.983 537.488 312.998 406.635C313.02 224.369 313.095 216.577 314.885 212.607C317.151 207.578 324.196 201.291 329.103 199.917C331.439 199.263 417.086 198.912 572.063 198.924C801.432 198.924 811.584 199.02 815.463 200.798C820.636 203.172 826.663 209.896 828.1 214.895C828.902 217.687 829.133 272.576 828.919 409.506L828.62 600.228L825.829 604.554C824.294 606.934 821.106 610.147 818.745 611.694L814.451 614.506L572.527 614.766L330.603 615.026L325.446 612.439ZM553.607 587.648C555.134 586.672 570.22 541.683 569.445 540.419C569.149 539.936 567.317 539.543 565.373 539.543C561.121 539.543 561.199 539.387 554.262 562.236C551.58 571.071 549.137 578.294 548.833 578.287C548.528 578.287 546.065 571.052 543.358 562.224C536.315 539.255 536.458 539.543 532.106 539.543C529.854 539.543 528.265 540.108 527.911 541.039C527.234 542.819 541.507 586.634 543.118 587.718C544.611 588.723 552.004 588.679 553.607 587.648ZM583.932 587.648C584.828 587.077 585.251 581.325 585.45 567.023L585.726 547.194L592.195 566.376C595.753 576.927 599.315 586.215 600.111 587.017C601.895 588.815 605.561 588.905 607.646 587.203C608.505 586.505 612.121 577.554 615.683 567.319C619.245 557.084 622.492 548.708 622.897 548.706C623.303 548.706 623.758 557.537 623.909 568.335L624.184 587.967H627.726H631.269V564.509V541.052H624.184H617.1L611.523 555.84C608.455 563.974 605.566 571.547 605.101 572.669C604.434 574.277 603.204 571.792 599.293 560.94C591.357 538.92 592.547 540.542 584.332 540.542C578.89 540.542 577.204 540.898 576.726 542.155C576.388 543.043 576.112 553.56 576.112 565.528C576.112 581.981 576.42 587.413 577.377 587.802C579.344 588.602 582.562 588.525 583.932 587.648ZM654.04 481.543V476.6L639.764 475.916C618.044 474.871 610.946 472.731 607.925 466.316C606.376 463.026 606.322 461.719 607.43 454.411C608.115 449.896 609.146 445.628 609.722 444.927C610.525 443.95 619.439 443.652 647.954 443.652C683.394 443.652 685.259 443.555 687.67 441.646C689.061 440.543 690.726 438.362 691.368 436.797C692.224 434.716 692.464 414.366 692.265 360.862L691.992 287.77L689.537 285.137C688.187 283.689 685.454 282.048 683.464 281.491C678.437 280.084 480.763 280.114 475.729 281.491C473.678 282.063 470.831 283.933 469.404 285.643L466.809 288.752V362.718V436.685L470.25 440.153L473.691 443.62H510.697C553.594 443.62 549.671 442.426 550.478 455.734C551.052 465.212 549.095 469.212 542.43 472.184C538.038 474.141 521.832 476.257 511.232 476.257H505.267V481.357V486.456H579.653H654.04V481.514V481.543ZM481.99 362.051V295.753L579.4 296.013L676.811 296.273L677.071 362.311L677.331 428.35H579.66H481.989L481.99 362.051ZM579.144 389.849L579.141 368.686L566.241 361.298C559.145 357.235 550.949 352.521 548.027 350.823L542.714 347.736L542.751 368.92L542.787 390.104L560.711 400.497C570.569 406.214 578.748 410.919 578.888 410.951C579.027 410.951 579.146 401.489 579.144 389.849ZM604.546 400.068L621.654 390.144V369.471C621.654 358.101 621.401 348.798 621.093 348.798C620.784 348.798 612.821 353.273 603.397 358.742L586.263 368.686L586.249 389.339C586.241 400.698 586.504 409.992 586.836 409.992C587.168 409.992 595.137 405.526 604.546 400.068ZM600.408 352.113C609.844 346.643 617.574 341.871 617.585 341.508C617.615 340.671 584.099 321.006 582.564 320.957C580.588 320.883 546.739 341.026 547.528 341.796C548.675 342.917 581.566 361.94 582.465 362.002C582.897 362.002 590.972 357.581 600.408 352.113Z" fill="white"/>
<g clip-path="url(#clip1_85_209)">
<path d="M507 515H437C428.716 515 422 521.716 422 530V600C422 608.284 428.716 615 437 615H507C515.284 615 522 608.284 522 600V530C522 521.716 515.284 515 507 515Z" fill="white"/>
<path d="M472 585.703V606.602L497.586 570.469L472 585.703Z" fill="#3C3C3B"/>
<path d="M472 523.008L497.586 565.586L472 580.82L446.219 565.586" fill="#343434"/>
<path d="M472 523.008V553.867L446.219 565.586M446.219 570.469L472 585.703V606.602" fill="#8C8C8C"/>
<path d="M472 553.867V580.82L497.586 565.586" fill="#141414"/>
<path d="M446.219 565.586L472 553.867V580.82" fill="#393939"/>
</g>
</g>
<defs>
<clipPath id="clip0_85_209">
<rect width="516" height="520" fill="white" transform="translate(313 147)"/>
</clipPath>
<clipPath id="clip1_85_209">
<rect width="100" height="100" fill="white" transform="translate(422 515)"/>
</clipPath>
</defs>
</svg>
