<svg width="501" height="471" viewBox="0 0 501 471" fill="none" xmlns="http://www.w3.org/2000/svg">
<path d="M203.532 195.759L241.889 216.365C246.586 219.309 249.718 223.725 249.718 228.876V270.825C249.718 275.976 246.586 281.128 241.889 283.336L203.532 304.678C198.835 307.622 192.572 307.622 187.875 304.678L149.518 284.072C144.821 281.128 141.689 276.712 141.689 271.561V229.612C141.689 224.461 144.821 219.309 149.518 217.101L187.875 196.495C192.572 192.815 198.835 192.815 203.532 195.759Z" fill="#2F4BFF"/>
<path d="M314.691 122.901C313.125 122.165 312.342 122.165 310.777 122.901L277.898 140.564C276.333 141.3 276.333 142.772 276.333 143.508V178.833C276.333 180.304 277.116 181.04 277.898 181.776L310.777 199.439C312.342 200.175 313.125 200.175 314.691 199.439L347.569 181.776C349.134 181.04 349.134 179.569 349.134 178.833V143.508C349.134 142.036 348.352 141.3 347.569 140.564L314.691 122.901ZM319.387 117.014L352.266 134.676C356.18 136.884 358.528 140.564 358.528 144.244V179.569C358.528 183.248 356.18 186.928 352.266 189.136L319.387 206.798C315.473 209.006 311.559 209.006 307.645 206.798L274.767 189.136C270.853 186.928 268.505 183.248 268.505 179.569V144.244C268.505 140.564 270.853 136.884 274.767 134.676L307.645 117.014C310.777 114.806 315.473 114.806 319.387 117.014ZM336.609 317.925L303.731 335.587V370.912L336.609 388.575L369.487 370.912V335.587L336.609 317.925ZM377.316 322.34C382.012 325.284 385.144 329.7 385.144 334.851V370.176C385.144 375.328 382.012 380.479 377.316 382.687L344.437 401.822C339.741 404.765 333.478 404.765 328.781 401.822L295.903 384.159C291.206 381.215 288.075 376.8 288.075 371.648V336.323C288.075 331.172 291.206 326.02 295.903 323.812L328.781 306.15C333.478 303.206 339.741 303.206 344.437 306.15L377.316 322.34ZM86.1094 78.0092V98.6154L105.68 108.919L125.25 98.6154V78.0092L105.68 67.7061L86.1094 78.0092ZM134.644 66.2342C138.558 68.442 140.906 72.1217 140.906 75.8014V100.823C140.906 104.503 138.558 108.183 134.644 110.39L111.159 122.901C107.245 125.109 103.331 125.109 99.4172 122.901L75.9328 110.39C72.8016 108.183 70.4531 104.503 70.4531 100.823V75.8014C70.4531 72.1217 72.8016 68.442 76.7156 66.2342L100.2 53.7232C104.114 51.5154 108.028 51.5154 111.942 53.7232L134.644 66.2342ZM93.9375 357.665L70.4531 370.176V395.198L93.9375 407.709L117.422 395.198V370.176L93.9375 357.665ZM97.8516 351.042L121.336 363.553C123.684 365.025 125.25 367.233 125.25 370.176V395.198C125.25 398.142 123.684 400.35 121.336 401.822L97.8516 414.333C95.5031 415.804 92.3719 415.804 90.0234 414.333L66.5391 401.822C64.1906 400.35 62.625 398.142 62.625 395.198V370.176C62.625 367.233 64.1906 365.025 66.5391 363.553L90.0234 351.042C92.3719 349.57 95.5031 349.57 97.8516 351.042Z" fill="white"/>
<path d="M197.269 356.93L166.739 385.631C165.956 386.367 165.173 386.367 163.608 386.367H120.553C118.205 386.367 116.639 384.895 116.639 382.687C116.639 380.48 118.205 379.008 120.553 379.008H162.042L191.006 351.778V320.133C191.006 317.925 192.572 316.453 194.92 316.453C197.269 316.453 198.834 317.925 198.834 320.133V349.57H281.812C284.161 349.57 285.727 351.042 285.727 353.25C285.727 355.458 284.161 356.93 281.812 356.93H197.269ZM191.789 156.019L138.558 112.598C136.992 111.126 136.992 108.919 137.775 107.447C139.341 105.975 141.689 105.975 143.255 106.711L197.269 150.131H258.328C260.677 150.131 262.242 151.603 262.242 153.811C262.242 156.019 260.677 157.491 258.328 157.491H199.617V183.984C199.617 186.192 198.052 187.664 195.703 187.664C193.355 187.664 191.789 186.192 191.789 183.984V156.019ZM391.406 334.851C389.058 334.851 387.492 333.38 387.492 331.172C387.492 328.964 389.058 327.492 391.406 327.492H434.461C436.809 327.492 438.375 328.964 438.375 331.172C438.375 333.38 436.809 334.851 434.461 334.851H391.406ZM367.139 134.676C365.573 136.148 363.225 136.148 361.659 135.412C360.094 133.941 360.094 131.733 360.877 130.261L407.845 78.7452C409.411 77.2733 411.759 77.2733 413.325 78.0093C414.891 79.4812 414.891 81.689 414.108 83.1608L367.139 134.676ZM78.2812 231.82C75.9328 231.82 74.3672 230.348 74.3672 228.141C74.3672 225.933 75.9328 224.461 78.2812 224.461H133.078C135.427 224.461 136.992 225.933 136.992 228.141C136.992 230.348 135.427 231.82 133.078 231.82H78.2812ZM340.523 298.055C340.523 300.262 338.958 301.734 336.609 301.734C334.261 301.734 332.695 300.262 332.695 298.055V250.219C332.695 248.011 334.261 246.539 336.609 246.539C338.958 246.539 340.523 248.011 340.523 250.219V298.055Z" fill="white"/>
</svg>
