<svg width="1474" height="434" viewBox="0 0 1474 434" fill="none" xmlns="http://www.w3.org/2000/svg">
<g clip-path="url(#clip0_85_309)">
<g clip-path="url(#clip1_85_309)">
<path d="M1342.16 456.954C1342.04 456.954 1341.93 456.941 1341.81 456.941C1309.53 455.815 1283.96 440.35 1283.96 421.427V413.669C1283.96 394.022 1311.54 378.091 1345.58 378.091C1379.62 378.091 1407.2 394.022 1407.2 413.669C1407.2 415.699 1406.91 417.719 1406.34 419.666V419.679" fill="white"/>
<path d="M976.424 227.004L943.378 246.086L938.628 248.828C938.332 249.002 938.116 249.286 938.029 249.618C937.942 249.951 937.991 250.304 938.164 250.601C938.338 250.897 938.622 251.113 938.954 251.2C939.286 251.287 939.64 251.238 939.936 251.065L972.984 231.984L977.732 229.242C978.029 229.069 978.245 228.785 978.332 228.452C978.419 228.12 978.37 227.767 978.197 227.47C978.023 227.173 977.739 226.958 977.407 226.871C977.074 226.784 976.721 226.832 976.424 227.006V227.004Z" fill="#D7EBF7"/>
<path d="M1191.88 102.614L1154.39 124.256L1149.01 127.365C1148.86 127.451 1148.73 127.564 1148.63 127.7C1148.52 127.836 1148.45 127.99 1148.4 128.155C1148.36 128.32 1148.35 128.492 1148.37 128.66C1148.4 128.829 1148.45 128.992 1148.54 129.139C1148.62 129.286 1148.74 129.415 1148.87 129.518C1149.01 129.622 1149.16 129.697 1149.33 129.74C1149.49 129.784 1149.66 129.794 1149.83 129.771C1150 129.748 1150.17 129.692 1150.31 129.607L1187.8 107.964L1193.19 104.856C1193.48 104.683 1193.7 104.398 1193.79 104.066C1193.87 103.734 1193.83 103.381 1193.65 103.084C1193.48 102.787 1193.2 102.572 1192.86 102.485C1192.53 102.397 1192.18 102.446 1191.88 102.619V102.614Z" fill="#D7EBF7"/>
<path d="M1384.72 288.497L1405.86 300.697L1408.88 302.443C1409.18 302.617 1409.53 302.665 1409.86 302.578C1410.2 302.491 1410.48 302.275 1410.65 301.979C1410.83 301.682 1410.88 301.329 1410.79 300.996C1410.7 300.664 1410.49 300.38 1410.19 300.206L1389.05 288.006L1386.03 286.26C1385.73 286.087 1385.38 286.038 1385.04 286.125C1384.71 286.213 1384.43 286.428 1384.25 286.725C1384.08 287.021 1384.03 287.375 1384.12 287.707C1384.21 288.039 1384.42 288.323 1384.72 288.497Z" fill="#D7EBF7"/>
<path d="M1154.18 155.43L1187.72 174.789L1192.44 177.509C1192.74 177.682 1193.09 177.731 1193.43 177.643C1193.76 177.556 1194.04 177.341 1194.22 177.044C1194.39 176.747 1194.44 176.394 1194.35 176.062C1194.26 175.729 1194.05 175.445 1193.75 175.272L1160.21 155.913L1155.48 153.193C1155.34 153.107 1155.17 153.051 1155.01 153.028C1154.84 153.005 1154.67 153.016 1154.5 153.059C1154.34 153.102 1154.18 153.177 1154.05 153.28C1153.91 153.383 1153.8 153.511 1153.71 153.658C1153.63 153.805 1153.57 153.967 1153.55 154.136C1153.52 154.304 1153.53 154.476 1153.58 154.64C1153.62 154.805 1153.7 154.959 1153.8 155.095C1153.9 155.23 1154.03 155.344 1154.18 155.43Z" fill="#D7EBF7"/>
<path d="M1429.25 234.297L1399.97 251.202L1379.34 263.118L1348.37 281.004L1325.49 294.215L1298.99 309.507L1271.67 325.282L1249.46 338.105L1218.09 356.218L1198.2 367.705L1164.81 386.987L1162.08 388.567C1161.93 388.653 1161.8 388.767 1161.7 388.903C1161.59 389.038 1161.52 389.192 1161.48 389.357C1161.43 389.522 1161.42 389.693 1161.45 389.862C1161.47 390.03 1161.52 390.192 1161.61 390.339C1161.7 390.486 1161.81 390.615 1161.95 390.717C1162.08 390.82 1162.24 390.896 1162.4 390.939C1162.56 390.982 1162.74 390.992 1162.9 390.969C1163.07 390.946 1163.24 390.89 1163.38 390.804L1192.35 374.076L1211.08 363.258L1246.32 342.908L1264.07 332.66L1297.86 313.153L1317.5 301.811L1348.49 283.92L1371.25 270.781L1397.88 255.402L1427.34 238.398L1430.56 236.538C1430.86 236.365 1431.07 236.08 1431.16 235.748C1431.25 235.416 1431.2 235.062 1431.03 234.766C1430.85 234.469 1430.57 234.253 1430.24 234.166C1429.9 234.079 1429.55 234.128 1429.25 234.301V234.297Z" fill="#D7EBF7"/>
<path d="M1211.36 292.89L1200.52 299.151L1174.35 314.268L1142.82 332.484L1115.54 348.239L1106.47 353.477C1105.07 354.288 1103.56 355.022 1102.22 355.938C1102.16 355.978 1102.1 356.011 1102.03 356.045C1101.89 356.131 1101.76 356.245 1101.65 356.381C1101.55 356.516 1101.48 356.671 1101.43 356.836C1101.39 357 1101.38 357.172 1101.4 357.34C1101.43 357.509 1101.48 357.671 1101.57 357.818C1101.65 357.965 1101.77 358.093 1101.9 358.196C1102.04 358.299 1102.19 358.374 1102.36 358.417C1102.52 358.46 1102.69 358.471 1102.86 358.447C1103.03 358.424 1103.19 358.368 1103.34 358.282L1114.18 352.023L1140.35 336.904L1171.89 318.689L1199.16 302.934L1208.23 297.696C1209.63 296.884 1211.14 296.15 1212.48 295.236C1212.54 295.195 1212.61 295.164 1212.67 295.128C1212.97 294.955 1213.18 294.671 1213.27 294.338C1213.36 294.006 1213.31 293.653 1213.13 293.356C1212.96 293.06 1212.68 292.844 1212.34 292.757C1212.01 292.67 1211.66 292.717 1211.36 292.89Z" fill="#D7EBF7"/>
<path d="M1087.4 297.298C1078.79 302.274 1070.17 307.25 1061.56 312.227L1038.4 325.587L1024.17 333.803C1023.88 333.977 1023.66 334.261 1023.58 334.593C1023.49 334.926 1023.54 335.279 1023.71 335.576C1023.88 335.872 1024.17 336.088 1024.5 336.175C1024.83 336.262 1025.19 336.214 1025.48 336.04L1050.94 321.345L1075.1 307.399L1088.72 299.534C1089.01 299.361 1089.23 299.077 1089.32 298.745C1089.4 298.412 1089.35 298.059 1089.18 297.762C1089.01 297.466 1088.72 297.25 1088.39 297.163C1088.06 297.076 1087.71 297.124 1087.41 297.298H1087.4Z" fill="#D7EBF7"/>
<path d="M997.932 281.776L970.006 297.898L966.008 300.207C965.712 300.38 965.496 300.664 965.409 300.997C965.322 301.329 965.37 301.682 965.544 301.979C965.717 302.276 966.002 302.491 966.334 302.578C966.666 302.665 967.02 302.617 967.316 302.443L995.247 286.323L999.244 284.015C999.391 283.93 999.519 283.816 999.622 283.68C999.725 283.545 999.8 283.39 999.843 283.226C999.886 283.061 999.897 282.89 999.874 282.721C999.851 282.553 999.795 282.391 999.709 282.244C999.623 282.097 999.509 281.968 999.374 281.865C999.238 281.763 999.084 281.687 998.919 281.644C998.755 281.601 998.583 281.591 998.415 281.614C998.246 281.637 998.084 281.693 997.937 281.779L997.932 281.776Z" fill="#D7EBF7"/>
<path d="M1201.56 164.213L1177.06 178.356L1173.56 180.38C1173.41 180.466 1173.28 180.58 1173.18 180.715C1173.07 180.851 1173 181.005 1172.96 181.17C1172.91 181.334 1172.9 181.506 1172.93 181.674C1172.95 181.843 1173.01 182.005 1173.09 182.152C1173.18 182.299 1173.29 182.427 1173.43 182.53C1173.56 182.633 1173.72 182.708 1173.88 182.751C1174.05 182.795 1174.22 182.805 1174.39 182.782C1174.55 182.759 1174.72 182.703 1174.86 182.617L1199.36 168.474L1202.87 166.449C1203.01 166.363 1203.14 166.25 1203.24 166.114C1203.35 165.979 1203.42 165.824 1203.47 165.66C1203.51 165.495 1203.52 165.324 1203.5 165.155C1203.47 164.987 1203.42 164.824 1203.33 164.678C1203.24 164.531 1203.13 164.402 1203 164.299C1202.86 164.196 1202.71 164.121 1202.54 164.078C1202.38 164.035 1202.21 164.025 1202.04 164.048C1201.87 164.071 1201.71 164.127 1201.56 164.213Z" fill="#D7EBF7"/>
<path d="M1204.2 382.839L1175.54 366.281L1157.21 355.701L1122 335.376C1116.36 332.125 1110.73 328.872 1105.1 325.618L1070.52 305.646C1064.56 302.209 1058.61 298.772 1052.66 295.335L1019.6 276.244L999.983 264.922L969.302 247.209L945.383 233.4L939.943 230.254C939.796 230.168 939.634 230.112 939.465 230.089C939.296 230.066 939.125 230.076 938.96 230.119C938.796 230.162 938.641 230.237 938.506 230.34C938.37 230.443 938.256 230.571 938.17 230.718C938.084 230.865 938.028 231.027 938.005 231.196C937.982 231.365 937.992 231.536 938.035 231.701C938.079 231.865 938.154 232.02 938.257 232.155C938.359 232.291 938.488 232.405 938.635 232.491L965.637 248.081C973.511 252.629 981.386 257.176 989.262 261.722L1016.4 277.393L1042.17 292.267C1050.01 296.798 1057.86 301.327 1065.7 305.856L1095.04 322.801C1101.94 326.787 1108.84 330.774 1115.75 334.759L1147.81 353.265C1154.24 356.978 1160.67 360.691 1167.11 364.403L1200.19 383.51L1202.91 385.082C1203.2 385.256 1203.56 385.304 1203.89 385.217C1204.22 385.13 1204.51 384.914 1204.68 384.618C1204.85 384.321 1204.9 383.968 1204.81 383.635C1204.73 383.303 1204.51 383.019 1204.22 382.845L1204.2 382.839Z" fill="#D7EBF7"/>
<path d="M1144.25 284.013L1158.99 292.527L1194.41 312.977L1237.25 337.715L1274.28 359.101L1286.48 366.148C1288.4 367.255 1290.29 368.496 1292.27 369.489C1292.36 369.532 1292.44 369.587 1292.52 369.634C1292.82 369.808 1293.17 369.856 1293.51 369.769C1293.84 369.682 1294.12 369.467 1294.3 369.17C1294.47 368.874 1294.52 368.52 1294.43 368.188C1294.34 367.855 1294.13 367.571 1293.83 367.398L1279.09 358.883L1243.67 338.434L1200.83 313.696L1163.79 292.31L1151.59 285.263C1149.67 284.155 1147.78 282.914 1145.8 281.921C1145.72 281.877 1145.64 281.824 1145.55 281.776C1145.26 281.603 1144.9 281.554 1144.57 281.642C1144.24 281.729 1143.96 281.944 1143.78 282.241C1143.61 282.538 1143.56 282.891 1143.65 283.223C1143.73 283.555 1143.95 283.839 1144.25 284.013Z" fill="#D7EBF7"/>
<path d="M1386.13 222.118L1408.02 234.757L1425.21 244.678L1436.07 250.949C1436.37 251.123 1436.72 251.171 1437.05 251.084C1437.39 250.997 1437.67 250.782 1437.84 250.485C1438.02 250.189 1438.07 249.835 1437.98 249.503C1437.89 249.17 1437.68 248.886 1437.38 248.713L1416.11 236.437C1409.78 232.784 1403.45 229.128 1397.12 225.471L1387.43 219.881C1387.13 219.735 1386.79 219.707 1386.48 219.802C1386.16 219.897 1385.9 220.109 1385.73 220.393C1385.57 220.677 1385.52 221.014 1385.59 221.334C1385.67 221.654 1385.86 221.934 1386.13 222.118Z" fill="#D7EBF7"/>
<path d="M1172.4 98.7219L1202.95 116.365L1222.89 127.883L1252.26 144.834L1293.56 168.676C1301.62 173.329 1309.6 178.201 1317.77 182.651C1317.9 182.721 1318.02 182.797 1318.15 182.87C1318.45 183.043 1318.8 183.091 1319.13 183.004C1319.47 182.917 1319.75 182.701 1319.92 182.405C1320.1 182.108 1320.14 181.755 1320.06 181.422C1319.97 181.09 1319.75 180.806 1319.46 180.633L1299.31 169.002L1258.4 145.387L1226.11 126.746L1209.1 116.928L1174.45 96.9138L1173.7 96.4851C1173.41 96.3116 1173.05 96.2631 1172.72 96.3502C1172.39 96.4372 1172.11 96.6528 1171.93 96.9494C1171.76 97.246 1171.71 97.5994 1171.8 97.9318C1171.88 98.2642 1172.1 98.5484 1172.4 98.7219Z" fill="#D7EBF7"/>
<path d="M1289.6 37.8924C1276.3 30.2029 1261.43 21.6276 1246.55 13.0405C1231.69 21.6198 1216.84 30.1848 1203.55 37.8652C1203.55 109.806 1203.55 181.76 1203.55 181.767C1218.19 190.243 1246.35 206.498 1246.55 206.612C1259.85 198.938 1274.73 190.347 1289.6 181.756V37.8924Z" fill="white"/>
<path d="M1289.43 66.1157C1274.64 74.6639 1259.85 83.1965 1246.61 90.8536C1246.53 90.8977 1246.45 90.9404 1246.38 90.9832C1246.16 90.8536 1245.96 90.7397 1245.76 90.6257C1232.69 83.08 1218.13 74.66 1203.55 66.2414V84.857C1218.13 93.2756 1232.69 101.694 1245.76 109.241C1245.96 109.355 1246.16 109.471 1246.38 109.599C1246.45 109.556 1246.53 109.513 1246.61 109.469C1259.85 101.808 1274.64 93.2795 1289.43 84.7313H1289.66V66.1157H1289.43Z" fill="#2D0E37"/>
<path d="M1289.43 103.615C1274.64 112.163 1259.85 120.697 1246.61 128.353C1246.53 128.396 1246.45 128.438 1246.38 128.482C1246.16 128.353 1245.96 128.239 1245.76 128.125C1232.69 120.579 1218.13 112.161 1203.55 103.742V122.354C1218.13 130.772 1232.69 139.191 1245.76 146.737C1245.96 146.852 1246.16 146.966 1246.38 147.095C1246.45 147.051 1246.53 147.009 1246.61 146.966C1259.85 139.306 1274.64 130.776 1289.43 122.228H1289.66V103.615H1289.43Z" fill="#2D0E37"/>
<path d="M1289.43 141.116C1274.64 149.664 1259.85 158.197 1246.61 165.854C1246.53 165.898 1246.45 165.94 1246.38 165.983C1246.16 165.854 1245.96 165.74 1245.76 165.626C1232.69 158.08 1218.13 149.66 1203.55 141.241V159.854C1218.13 168.273 1232.69 176.692 1245.76 184.239C1245.96 184.353 1246.16 184.468 1246.38 184.596C1246.45 184.553 1246.53 184.511 1246.61 184.467C1259.85 176.806 1274.64 168.277 1289.43 159.729H1289.66V141.116H1289.43Z" fill="#2D0E37"/>
<path d="M1288.3 179.515C1273.95 187.804 1259.6 196.09 1245.24 204.371H1247.86C1237.23 198.268 1226.61 192.14 1216.01 185.987L1204.8 179.511C1201.91 177.84 1199.3 182.315 1202.19 183.985C1212.95 190.202 1223.7 196.413 1234.46 202.62C1237.81 204.552 1241.16 206.484 1244.51 208.416C1244.74 208.545 1244.96 208.696 1245.2 208.815C1247.1 209.772 1248.77 208.315 1250.37 207.39L1262.34 200.484L1290.91 183.984C1293.8 182.317 1291.19 177.838 1288.3 179.51V179.515Z" fill="#211715"/>
<path d="M1202.25 162.094C1214.01 168.891 1225.78 175.688 1237.54 182.486L1241.41 184.722C1242.68 185.565 1244 186.315 1245.38 186.966C1246.91 187.566 1248.14 186.578 1249.41 185.841L1253.72 183.351C1259.36 180.092 1265 176.833 1270.64 173.574C1277.34 169.705 1284.04 165.835 1290.74 161.965C1293.63 160.297 1291.02 155.819 1288.12 157.492C1273.78 165.781 1259.51 174.239 1245.07 182.359H1247.69C1233.48 173.998 1219.13 165.863 1204.86 157.621C1201.97 155.952 1199.36 160.425 1202.25 162.094Z" fill="#211715"/>
<path d="M1202.25 143.481C1214.01 150.277 1225.78 157.074 1237.54 163.872L1241.41 166.107C1242.68 166.952 1244 167.702 1245.38 168.353C1246.91 168.953 1248.14 167.965 1249.41 167.228L1253.72 164.738C1259.36 161.479 1265 158.22 1270.64 154.961C1277.34 151.093 1284.04 147.223 1290.74 143.352C1293.63 141.684 1291.02 137.206 1288.12 138.879C1273.78 147.168 1259.51 155.626 1245.07 163.746H1247.69C1233.48 155.385 1219.13 147.25 1204.86 139.008C1201.97 137.338 1199.36 141.812 1202.25 143.481Z" fill="#211715"/>
<path d="M1202.25 124.594C1214.01 131.39 1225.78 138.187 1237.54 144.986L1241.41 147.221C1242.68 148.065 1244 148.815 1245.38 149.466C1246.91 150.065 1248.14 149.077 1249.41 148.342L1253.72 145.852C1259.36 142.591 1265 139.332 1270.64 136.075C1277.34 132.207 1284.04 128.337 1290.74 124.465C1293.63 122.798 1291.02 118.319 1288.12 119.993C1273.78 128.282 1259.51 136.739 1245.07 144.86H1247.69C1233.48 136.498 1219.13 128.363 1204.86 120.122C1201.97 118.451 1199.36 122.925 1202.25 124.594Z" fill="#211715"/>
<path d="M1202.25 105.981C1214.01 112.778 1225.78 119.573 1237.54 126.369L1241.41 128.604C1242.68 129.448 1244 130.198 1245.38 130.849C1246.91 131.449 1248.14 130.46 1249.41 129.725L1253.72 127.234C1259.36 123.981 1265 120.723 1270.64 117.462C1277.34 113.592 1284.04 109.722 1290.74 105.852C1293.63 104.185 1291.02 99.7063 1288.12 101.378C1273.78 109.668 1259.51 118.125 1245.07 126.246H1247.69C1233.48 117.885 1219.13 109.75 1204.86 101.508C1201.97 99.8371 1199.36 104.312 1202.25 105.981Z" fill="#211715"/>
<path d="M1202.25 87.0937C1214.01 93.8908 1225.78 100.688 1237.54 107.486L1241.41 109.722C1242.68 110.565 1244 111.315 1245.38 111.966C1246.91 112.566 1248.14 111.578 1249.41 110.841L1253.72 108.351C1259.36 105.092 1265 101.833 1270.64 98.5742C1277.34 94.705 1284.04 90.8355 1290.74 86.9655C1293.63 85.2973 1291.02 80.8185 1288.12 82.4919C1273.78 90.7811 1259.51 99.2386 1245.07 107.359H1247.69C1233.48 98.999 1219.13 90.8627 1204.86 82.6214C1201.97 80.9506 1199.36 85.4255 1202.25 87.0937Z" fill="#211715"/>
<path d="M1202.25 68.4806C1214.01 75.2769 1225.78 82.074 1237.54 88.872L1241.41 91.1074C1242.68 91.9516 1244 92.7022 1245.38 93.3533C1246.91 93.9529 1248.14 92.9647 1249.41 92.2278L1253.72 89.7384C1259.36 86.478 1265 83.2189 1270.64 79.9611C1277.34 76.0928 1284.04 72.2233 1290.74 68.3524C1293.63 66.6842 1291.02 62.2055 1288.12 63.8789C1273.78 72.168 1259.51 80.6255 1245.07 88.7463H1247.69C1233.48 80.3846 1219.13 72.2496 1204.86 64.0084C1201.97 62.3376 1199.36 66.8125 1202.25 68.4806Z" fill="#211715"/>
<path d="M1244.02 63.1497V187.452C1244.02 193.199 1243.81 198.991 1244.02 204.735C1244.02 204.829 1244.02 204.924 1244.02 205.018C1244.02 208.352 1249.2 208.357 1249.2 205.018V80.7163C1249.2 74.9696 1249.41 69.1775 1249.2 63.4334C1249.2 63.3388 1249.2 63.243 1249.2 63.1497C1249.2 59.816 1244.02 59.8108 1244.02 63.1497Z" fill="#211715"/>
<path d="M1288.35 35.6557C1274 43.9448 1259.65 52.2301 1245.3 60.5115H1247.91C1233.54 52.2638 1219.19 43.9785 1204.86 35.6557C1201.97 33.9849 1199.36 38.4598 1202.25 40.1292C1213.93 46.8788 1225.62 53.6246 1237.3 60.3664C1239.91 61.8701 1242.47 63.5202 1245.15 64.8995C1246.8 65.7518 1247.96 64.9591 1249.42 64.1224L1253.75 61.6266C1259.42 58.3533 1265.09 55.0795 1270.76 51.8053C1277.49 47.9197 1284.23 44.0295 1290.97 40.1344C1293.86 38.4675 1291.25 33.9888 1288.36 35.6609L1288.35 35.6557Z" fill="#211715"/>
<path d="M1204.81 40.1293C1219.15 31.8401 1233.5 23.5549 1247.86 15.2735H1245.25C1259.6 23.5626 1273.95 31.8479 1288.3 40.1293C1291.19 41.8 1293.8 37.3252 1290.92 35.6557C1276.57 27.3631 1262.21 19.0779 1247.86 10.7999C1247.46 10.5708 1247.01 10.4502 1246.55 10.4502C1246.09 10.4502 1245.64 10.5708 1245.24 10.7999C1230.89 19.0891 1216.54 27.3743 1202.19 35.6557C1199.3 37.3239 1201.91 41.8026 1204.8 40.1293H1204.81Z" fill="#211715"/>
<path d="M1287.01 37.8924V163.929C1287.01 169.757 1286.79 175.643 1287.01 181.472C1287.01 181.565 1287.01 181.66 1287.01 181.753C1287.01 185.087 1292.2 185.092 1292.2 181.753V55.7089C1292.2 49.8806 1292.42 43.9992 1292.2 38.1722C1292.2 38.0789 1292.2 37.9857 1292.2 37.8924C1292.2 34.5586 1287.01 34.5535 1287.01 37.8924Z" fill="#211715"/>
<path d="M1200.96 37.8924V163.929C1200.96 169.757 1200.74 175.643 1200.96 181.472C1200.96 181.565 1200.96 181.66 1200.96 181.753C1200.96 185.087 1206.14 185.092 1206.14 181.753V55.7089C1206.14 49.8806 1206.36 43.9992 1206.14 38.1722C1206.14 38.0789 1206.14 37.9857 1206.14 37.8924C1206.14 34.5586 1200.96 34.5535 1200.96 37.8924Z" fill="#211715"/>
<path d="M1342.16 454.364C1325.92 453.762 1307.58 449.857 1295.23 438.53C1290.98 434.633 1287.42 429.509 1286.68 423.853C1286.37 420.306 1286.33 416.74 1286.55 413.186C1286.63 410.53 1287.25 407.919 1288.39 405.519C1291.17 399.69 1296.12 395.214 1301.52 391.826C1308.49 387.606 1316.13 384.607 1324.11 382.958C1342.07 378.956 1361.85 379.912 1379.08 386.56C1390.24 390.869 1404.09 399.72 1404.59 412.866C1404.64 413.947 1404.6 415.031 1404.46 416.104C1404.15 417.279 1403.9 418.473 1403.74 419.679C1403.74 423.012 1408.92 423.018 1408.92 419.679C1409.08 419.226 1409.22 418.762 1409.32 418.291C1409.46 417.568 1409.56 416.836 1409.64 416.104C1409.78 414.923 1409.81 413.733 1409.75 412.545C1409.67 410.879 1409.41 409.226 1409 407.611C1408.15 404.469 1406.74 401.506 1404.84 398.863C1400.23 392.728 1394.18 387.813 1387.24 384.545C1369.67 375.745 1348.78 373.856 1329.53 376.706C1313.63 379.06 1295.49 385.432 1286.01 399.285C1284.13 401.993 1282.77 405.027 1282 408.231C1281.37 411.856 1281.15 415.541 1281.36 419.214C1281.22 422.614 1281.67 426.013 1282.69 429.259C1283.87 432.499 1285.59 435.515 1287.78 438.179C1292.66 444.274 1299.58 448.695 1306.64 451.843C1315.55 455.713 1325.02 458.143 1334.69 459.043C1337.17 459.302 1339.66 459.451 1342.15 459.545C1345.49 459.674 1345.48 454.493 1342.15 454.364H1342.16Z" fill="#211715"/>
<path d="M1101.64 288.8L986.943 222.572L1103.31 155.381L1219.67 222.57L1103.31 289.758L1101.64 288.8Z" fill="white"/>
<path d="M1102.95 286.563L1014.53 235.512L988.253 220.335V224.809L1078.14 172.91L1104.62 157.627H1102L1194.08 210.79L1218.37 224.815V220.342L1126.29 273.501L1102 287.527H1104.61L1102.95 286.566C1100.06 284.896 1097.45 289.371 1100.34 291.039L1102 292C1102.4 292.229 1102.85 292.35 1103.31 292.35C1103.77 292.35 1104.22 292.229 1104.61 292L1194.5 240.101L1220.98 224.812C1221.36 224.579 1221.68 224.25 1221.9 223.858C1222.12 223.467 1222.24 223.025 1222.24 222.575C1222.24 222.125 1222.12 221.683 1221.9 221.291C1221.68 220.899 1221.36 220.571 1220.98 220.338L1131.09 168.439L1104.62 153.149C1104.22 152.921 1103.77 152.801 1103.31 152.801C1102.85 152.801 1102.4 152.921 1102 153.149L1009.93 206.312L985.635 220.335C985.251 220.568 984.933 220.897 984.712 221.288C984.491 221.68 984.375 222.122 984.375 222.572C984.375 223.022 984.491 223.464 984.712 223.856C984.933 224.248 985.251 224.576 985.635 224.809L1076.15 277.073L1100.34 291.037C1103.23 292.707 1105.84 288.233 1102.95 286.563Z" fill="#211715"/>
<path d="M1103.31 120.91C1116.76 128.681 1130.22 136.439 1142.25 143.394C1128.8 151.165 1115.34 158.936 1103.31 165.878C1103.13 165.775 1102.94 165.671 1102.75 165.554C1090.86 158.69 1077.61 151.048 1064.36 143.394C1076.39 136.439 1089.85 128.681 1103.31 120.91Z" fill="white"/>
<path d="M1103.31 220.6V203.762C1115.29 196.833 1128.67 189.114 1142.05 181.382H1142.25V198.219H1142.05C1128.67 205.951 1115.29 213.67 1103.31 220.6Z" fill="#2D0E37"/>
<path d="M1103.31 220.6V243.874L1102.69 244.949C1090.81 238.097 1077.59 230.469 1064.36 222.827V198.335C1077.55 205.951 1090.72 213.567 1102.54 220.392C1102.72 220.496 1102.91 220.6 1103.1 220.716C1103.16 220.677 1103.24 220.638 1103.31 220.6Z" fill="white"/>
<path d="M1142.25 222.827C1128.79 230.598 1115.34 238.369 1103.3 245.311C1103.12 245.208 1102.94 245.104 1102.75 244.988C1102.72 244.975 1102.71 244.962 1102.68 244.949L1103.3 243.874V220.599C1115.28 213.67 1128.66 205.951 1142.04 198.219H1142.25V222.827Z" fill="white"/>
<path d="M1064.36 181.498C1077.55 189.114 1090.72 196.729 1102.54 203.555C1102.72 203.659 1102.91 203.762 1103.1 203.879C1103.16 203.84 1103.24 203.801 1103.31 203.762V220.6C1103.24 220.638 1103.16 220.677 1103.1 220.716C1102.91 220.6 1102.72 220.496 1102.54 220.392C1090.72 213.567 1077.55 205.951 1064.36 198.335V181.498Z" fill="#2D0E37"/>
<path d="M1140.95 220.591C1127.96 228.087 1114.98 235.582 1102 243.075H1104.62C1091.61 235.613 1078.63 228.118 1065.67 220.591C1062.78 218.92 1060.17 223.395 1063.05 225.064C1073.7 231.214 1084.34 237.358 1094.99 243.498C1097.23 244.794 1099.45 246.168 1101.72 247.392C1104.26 248.749 1107.27 246.016 1109.45 244.759C1114.69 241.73 1119.94 238.701 1125.19 235.67L1143.56 225.064C1146.44 223.397 1143.84 218.918 1140.94 220.591H1140.95Z" fill="#211715"/>
<path d="M1063.05 200.572C1073.66 206.698 1084.27 212.826 1094.87 218.955C1097.16 220.277 1099.42 221.787 1101.79 222.953C1103.26 223.677 1104.35 222.988 1105.62 222.257L1109.43 220.056C1114.65 217.034 1119.87 214.017 1125.1 211.006C1131.19 207.489 1137.27 203.973 1143.36 200.457C1146.25 198.789 1143.64 194.311 1140.75 195.983C1127.77 203.484 1114.86 211.137 1101.8 218.481H1104.41C1091.56 210.918 1078.59 203.559 1065.68 196.1C1062.78 194.429 1060.17 198.905 1063.06 200.574L1063.05 200.572Z" fill="#211715"/>
<path d="M1063.05 183.735C1073.66 189.861 1084.27 195.989 1094.87 202.117C1097.16 203.44 1099.42 204.95 1101.79 206.116C1103.26 206.84 1104.35 206.151 1105.62 205.42L1109.43 203.218C1114.65 200.196 1119.87 197.18 1125.1 194.169C1131.19 190.652 1137.27 187.136 1143.36 183.62C1146.25 181.951 1143.64 177.474 1140.75 179.146C1127.77 186.646 1114.86 194.3 1101.8 201.643H1104.41C1091.56 194.081 1078.59 186.722 1065.68 179.263C1062.78 177.592 1060.17 182.068 1063.06 183.736L1063.05 183.735Z" fill="#211715"/>
<path d="M1100.72 176.396V231.945C1100.72 235.279 1105.9 235.284 1105.9 231.945V176.396C1105.9 173.063 1100.72 173.057 1100.72 176.396Z" fill="#211715"/>
<path d="M1140.95 141.157C1127.96 148.654 1114.98 156.148 1102 163.641H1104.62C1091.61 156.18 1078.63 148.685 1065.67 141.157C1062.78 139.486 1060.17 143.961 1063.05 145.631C1073.63 151.74 1084.21 157.845 1094.79 163.947C1097.13 165.303 1099.45 166.811 1101.87 168.037C1103.43 168.83 1104.48 168.193 1105.88 167.39C1107.16 166.652 1108.44 165.915 1109.71 165.178L1125.2 156.241L1143.57 145.635C1146.46 143.968 1143.85 139.489 1140.95 141.161L1140.95 141.157Z" fill="#211715"/>
<path d="M1065.67 145.631C1078.65 138.129 1091.63 130.634 1104.62 123.147H1102C1114.98 130.643 1127.96 138.138 1140.95 145.631C1143.84 147.303 1146.45 142.827 1143.56 141.157C1130.58 133.656 1117.6 126.161 1104.62 118.673C1104.22 118.444 1103.77 118.324 1103.31 118.324C1102.85 118.324 1102.4 118.444 1102 118.673C1089.02 126.169 1076.04 133.664 1063.05 141.157C1060.17 142.825 1062.78 147.304 1065.67 145.631Z" fill="#211715"/>
<path d="M1061.77 143.394V222.827C1061.77 226.161 1066.95 226.166 1066.95 222.827V143.394C1066.95 140.06 1061.77 140.055 1061.77 143.394Z" fill="#211715"/>
<path d="M1139.66 143.394V222.827C1139.66 226.161 1144.84 226.166 1144.84 222.827V143.394C1144.84 140.06 1139.66 140.055 1139.66 143.394Z" fill="#211715"/>
<path d="M1002.09 246.58C1010.18 241.907 1018.27 237.229 1026.36 232.546C1029.25 230.879 1026.64 226.401 1023.75 228.073C1015.65 232.749 1007.56 237.427 999.47 242.107C996.585 243.773 999.191 248.252 1002.09 246.58Z" fill="#211715"/>
<path d="M1259.61 238.902L1271.76 231.882L1283.92 238.902C1283.92 239.141 1283.92 261.911 1283.92 262.408L1271.76 269.426L1271.59 269.327L1259.61 262.407C1259.61 261.87 1259.61 239.263 1259.61 238.902Z" fill="white"/>
<path d="M1282.62 260.17L1270.46 267.19H1273.07L1260.91 260.17C1258.02 258.499 1255.41 262.975 1258.3 264.643L1270.46 271.663C1270.85 271.892 1271.31 272.013 1271.76 272.013C1272.22 272.013 1272.67 271.892 1273.07 271.663L1285.23 264.643C1288.12 262.977 1285.51 258.498 1282.62 260.17Z" fill="#211715"/>
<path d="M1260.91 241.139L1273.07 234.119H1270.46C1274.51 236.458 1278.56 238.798 1282.62 241.139C1285.51 242.809 1288.12 238.333 1285.23 236.665L1273.07 229.645C1272.67 229.416 1272.22 229.295 1271.76 229.295C1271.31 229.295 1270.85 229.416 1270.46 229.645L1258.3 236.665C1255.41 238.332 1258.02 242.811 1260.91 241.139Z" fill="#211715"/>
<path d="M1257.02 238.902C1257.03 245.7 1257.02 252.501 1257.02 259.296V262.404C1257.02 265.738 1262.2 265.743 1262.2 262.404V241.921C1262.2 240.914 1262.2 239.908 1262.2 238.902C1262.2 235.569 1257.02 235.563 1257.02 238.902Z" fill="#211715"/>
<path d="M1281.33 238.902C1281.35 245.7 1281.33 252.501 1281.33 259.296V262.404C1281.33 265.738 1286.51 265.743 1286.51 262.404C1286.51 255.575 1286.51 248.747 1286.51 241.918C1286.51 240.912 1286.51 239.906 1286.51 238.899C1286.51 235.567 1281.33 235.56 1281.33 238.899V238.902Z" fill="#211715"/>
<path d="M1288.99 222.564C1288.99 217.744 1288.99 212.925 1288.99 208.105C1288.99 207.652 1288.86 207.208 1288.63 206.818C1288.4 206.427 1288.07 206.104 1287.68 205.878C1287.29 205.653 1286.84 205.533 1286.39 205.531C1285.94 205.53 1285.49 205.646 1285.1 205.868L1237.64 233.265C1237.25 233.494 1236.92 233.821 1236.7 234.213C1236.47 234.606 1236.35 235.05 1236.35 235.502C1236.35 254.735 1236.36 273.969 1236.36 293.203C1236.37 293.656 1236.5 294.1 1236.73 294.49C1236.96 294.881 1237.28 295.205 1237.68 295.43C1238.07 295.656 1238.51 295.775 1238.97 295.777C1239.42 295.779 1239.87 295.663 1240.26 295.44L1251.56 288.914C1254.44 287.248 1251.84 282.769 1248.94 284.441L1237.65 290.963L1241.54 293.199C1241.54 273.966 1241.54 254.732 1241.53 235.498L1240.25 237.735L1287.71 210.338L1283.81 208.105C1283.81 212.925 1283.81 217.744 1283.81 222.564C1283.81 225.898 1288.99 225.903 1288.99 222.564Z" fill="#211715"/>
<path d="M1195.14 287.769C1209.58 279.431 1224.01 271.087 1238.44 262.736L1250.19 255.948C1253.07 254.281 1250.47 249.802 1247.57 251.474C1231.77 260.607 1215.97 269.742 1200.17 278.879C1197.62 280.352 1195.07 281.824 1192.53 283.295C1189.64 284.962 1192.25 289.441 1195.14 287.769H1195.14Z" fill="#211715"/>
<path d="M1222.42 285.656C1231.68 280.311 1240.93 274.961 1250.19 269.607C1253.07 267.94 1250.47 263.461 1247.57 265.133C1238.32 270.482 1229.06 275.832 1219.81 281.183C1216.92 282.85 1219.53 287.327 1222.42 285.656Z" fill="#211715"/>
<path d="M1335.82 192.354C1334.8 191.762 1333.7 191.124 1332.55 190.454C1331.78 190.004 1330.91 189.765 1330.02 189.762C1329.13 189.76 1328.25 189.993 1327.48 190.439L1300.51 206.029C1299.89 206.383 1299.38 206.893 1299.03 207.507C1298.67 208.12 1298.49 208.817 1298.48 209.526C1298.48 213.615 1298.48 221.985 1298.48 226.052C1298.48 226.759 1298.67 227.453 1299.02 228.066C1299.38 228.678 1299.89 229.186 1300.5 229.54C1304.74 232.001 1314.32 237.57 1315.72 238.375" fill="#2D0E37"/>
<path d="M1276.85 254.98C1276.71 254.952 1276.57 254.927 1276.43 254.908C1275.72 254.778 1274.99 254.84 1274.31 255.089C1273.63 255.338 1273.03 255.763 1272.58 256.322C1272.25 256.775 1272.08 257.327 1272.1 257.889C1272.23 258.73 1272.62 259.507 1273.22 260.109C1275.54 262.885 1278.3 265.256 1281.4 267.125C1278.8 268.157 1276.69 270.132 1275.49 272.654C1275.04 273.67 1274.84 274.781 1274.9 275.891C1274.97 277.002 1275.3 278.081 1275.87 279.037C1276.78 280.261 1277.93 281.294 1279.24 282.078L1282.02 283.999C1283.43 284.965 1285.02 285.979 1286.7 285.707C1287.08 285.599 1287.47 285.564 1287.86 285.602C1288.26 285.737 1288.61 285.989 1288.87 286.326L1291.44 289.09C1294.11 285.308 1297.81 280.24 1300.5 276.682C1298.91 274.985 1297.68 272.976 1296.9 270.781C1296.63 269.821 1296.29 268.881 1295.89 267.971C1294.77 266.167 1293.25 264.651 1291.45 263.546C1288.71 261.574 1283.26 258.32 1280.38 256.569C1279.3 255.846 1278.1 255.308 1276.85 254.98Z" fill="white"/>
<path d="M1358.11 250.299C1354.51 249.607 1350.81 249.704 1347.25 250.585C1340.11 251.974 1333.15 253.105 1327.71 256.881C1325.19 258.653 1323.06 260.922 1321.46 263.548C1319.41 266.858 1314.38 275.168 1311.73 279.416C1309.93 278.304 1307.46 276.492 1305.38 275.032C1304.75 274.585 1303.97 274.4 1303.21 274.516C1302.44 274.632 1301.76 275.04 1301.29 275.654C1298.29 279.577 1293.49 286.145 1290.56 290.351C1290.14 290.939 1289.96 291.656 1290.03 292.37C1290.11 293.084 1290.44 293.747 1290.96 294.237C1294.78 297.821 1301.02 303.532 1304.74 305.495C1306.97 306.644 1309.55 306.958 1311.99 306.378C1314.5 305.79 1316.88 304.765 1319.03 303.35C1319.01 308.531 1319 311.835 1319 311.835C1318.99 315.859 1319.17 320.472 1319.17 320.472C1319.08 322.643 1320.22 326.3 1322 327.523C1323.58 328.615 1325.69 329.106 1330.44 329.97C1341.5 331.98 1351.26 330.521 1363.88 328.466C1365.97 328.127 1369.48 327.204 1370.62 325.844C1372.05 324.118 1371.98 322.291 1372.06 319.72C1372.65 299.941 1373.8 285.195 1370.35 268.32C1369.27 263.039 1367.76 257.547 1363.98 253.704C1362.39 252.037 1360.35 250.856 1358.11 250.299Z" fill="white"/>
<path d="M1321.7 241.381C1323.33 243.067 1325.3 244.397 1327.47 245.289C1329.64 246.18 1331.98 246.613 1334.33 246.561L1336.22 253.023C1339.71 251.993 1343.45 251.316 1347.25 250.578C1347.89 250.448 1348.52 250.346 1349.13 250.251L1349.36 250.102C1345.29 245.765 1341.94 240.803 1339.44 235.406C1339.44 235.406 1339.17 234.743 1338.79 233.805C1340.27 232.923 1341.45 231.625 1342.19 230.075C1342.98 228.523 1343.33 226.779 1343.18 225.041C1343.04 223.303 1342.41 221.639 1341.37 220.24C1340.28 218.924 1338.76 218.043 1337.08 217.755C1335.4 217.468 1333.67 217.794 1332.21 218.674C1331.29 216.31 1330.04 211.472 1329.75 210.514C1326.94 208.505 1323.99 206.676 1320.95 205.039L1320.76 205.284C1318.29 208.663 1316.54 212.514 1315.62 216.599C1314.71 220.683 1314.64 224.912 1315.43 229.023C1316.26 233.669 1318.44 237.967 1321.7 241.381Z" fill="white"/>
<path d="M1367.5 235.177L1367.6 235.014C1370.73 229.569 1371.98 223.246 1371.16 217.02C1369.37 204.55 1358.76 194.114 1346.18 193.402C1341.34 193.121 1336.51 194.036 1332.11 196.067C1327.71 198.098 1323.87 201.182 1320.95 205.047C1324 206.684 1326.94 208.513 1329.76 210.522C1330.04 211.48 1331.3 216.318 1332.21 218.681C1333.67 217.802 1335.4 217.476 1337.08 217.763C1338.76 218.05 1340.29 218.932 1341.37 220.247C1342.41 221.647 1343.04 223.31 1343.19 225.049C1343.33 226.787 1342.99 228.531 1342.19 230.083C1341.45 231.633 1340.27 232.93 1338.8 233.813C1339.19 234.775 1339.45 235.414 1339.45 235.414C1341.94 240.811 1345.29 245.773 1349.36 250.11L1349.46 250.209C1351.58 249.854 1353.73 249.758 1355.88 249.922C1356.72 248.301 1357.85 246.843 1359.21 245.617C1362.75 241.715 1365.32 238.979 1367.5 235.177Z" fill="#7A7473"/>
<path d="M1290.7 284.496C1290.28 284.011 1289.75 283.626 1289.16 283.369C1288.57 283.112 1287.93 282.99 1287.28 283.01C1286.75 283.108 1286.2 283.099 1285.67 282.984C1285.14 282.869 1284.64 282.649 1284.2 282.338C1282.12 281.217 1280.2 279.823 1278.49 278.193C1275.36 274.709 1279.64 270.754 1282.71 269.368C1284.56 268.53 1284.22 265.826 1282.71 264.895C1280.74 263.696 1278.91 262.278 1277.26 260.668C1276.46 259.932 1275.73 259.135 1275.05 258.284C1274.63 257.713 1274.55 257.86 1274.97 257.604C1276.41 256.708 1278.83 258.667 1279.97 259.359C1281.54 260.307 1283.1 261.254 1284.66 262.216C1286.21 263.178 1287.77 264.15 1289.27 265.182C1290.81 266.082 1292.18 267.26 1293.29 268.657C1294.43 270.361 1294.69 272.61 1295.67 274.432C1296.43 275.653 1297.28 276.819 1298.21 277.919C1298.57 278.496 1299.14 278.913 1299.8 279.086C1300.46 279.259 1301.16 279.173 1301.76 278.848C1302.35 278.498 1302.77 277.93 1302.95 277.267C1303.12 276.603 1303.03 275.898 1302.69 275.304C1301.8 274.258 1300.99 273.155 1300.25 272.002C1299.22 270.183 1298.97 268.043 1297.89 266.244C1295.93 262.97 1292.2 260.848 1289.06 258.862C1285.83 256.818 1282.48 254.352 1278.92 252.941C1275.02 251.399 1269.08 253.147 1269.56 258.252C1269.79 260.773 1272.07 262.866 1273.79 264.532C1275.71 266.37 1277.83 267.996 1280.1 269.38V264.906C1274.98 267.222 1270.72 272.888 1272.84 278.691C1273.95 281.709 1276.56 283.388 1279.1 285.133C1280.31 286.057 1281.6 286.873 1282.96 287.572C1283.61 287.885 1284.31 288.11 1285.02 288.243C1285.69 288.358 1286.98 288.038 1287.55 288.278L1286.41 287.612C1286.64 287.771 1286.86 287.961 1287.04 288.175C1289.37 290.561 1293.04 286.897 1290.7 284.513L1290.7 284.496Z" fill="#211715"/>
<path d="M1370.86 403.006L1369.56 402.308C1365.46 404.281 1352.55 404.524 1350.1 402.754C1345.43 408.125 1338.7 408.903 1332.65 408.089C1331.82 408.026 1331 407.862 1330.21 407.602C1328.04 406.87 1326.04 405.708 1324.34 404.185C1324.32 404.168 1324.3 404.159 1324.28 404.142L1323.53 404.209C1322.54 403.611 1319.49 404.228 1318.24 406.107C1317 407.986 1317.04 411.601 1317.75 413.748C1319.28 418.418 1323.78 420.785 1328.4 422.451C1333.17 424.253 1338.34 424.714 1343.35 423.782C1344.41 423.519 1345.4 423.039 1346.25 422.372C1347.11 421.705 1347.82 420.867 1348.34 419.91C1348.94 418.776 1349.33 417.539 1349.48 416.262L1357.43 418.091C1359.05 418.509 1360.72 418.724 1362.39 418.73C1363.13 418.73 1363.91 418.68 1364.77 418.591C1365.93 418.528 1367.07 418.207 1368.09 417.652C1369.11 417.097 1370 416.322 1370.69 415.382C1371.48 413.877 1371.88 412.201 1371.86 410.504C1371.91 408.794 1370.8 404.703 1370.86 403.006Z" fill="white"/>
<path d="M1341.59 330.935C1337.86 330.961 1334.12 330.639 1330.45 329.975C1325.1 329.004 1323.1 328.502 1321.43 327.088C1321.33 338.756 1322.25 384.572 1323.16 401.225L1323.44 402.607C1323.83 404.603 1326.93 406.301 1330.2 407.6C1330.99 407.861 1331.81 408.024 1332.64 408.087C1338.69 408.902 1345.42 408.123 1350.09 402.752C1353.09 404.917 1371.75 404.073 1370.77 400.732C1370.17 384.183 1369.64 350.748 1370.12 335.908C1370.12 335.908 1369.99 330.818 1369.88 326.492C1368.02 327.506 1365.99 328.176 1363.89 328.471C1356.53 329.875 1349.08 330.699 1341.59 330.935Z" fill="#CFCFCF"/>
<path d="M1318.84 330.296C1318.9 349.572 1319.38 368.863 1320.03 388.127C1320.18 392.549 1320.34 396.971 1320.58 401.388C1320.76 404.704 1325.94 404.725 1325.76 401.388C1324.71 382.145 1324.45 362.835 1324.16 343.569C1324.09 339.145 1324.03 334.72 1324.02 330.296C1324.01 326.962 1318.83 326.956 1318.84 330.296Z" fill="#211715"/>
<path d="M1367.53 335.908C1366.95 353.951 1367.4 372.063 1367.86 390.105C1367.97 394.406 1368.09 398.707 1368.27 403.006C1368.4 406.328 1373.58 406.345 1373.45 403.006C1372.71 384.96 1372.47 366.871 1372.52 348.813C1372.54 344.511 1372.57 340.208 1372.71 335.908C1372.81 332.573 1367.63 332.577 1367.53 335.908Z" fill="#211715"/>
<path d="M1347.2 354.287C1346.47 368.533 1346.08 382.834 1345.93 397.1C1345.91 399.561 1345.82 402.049 1346 404.503C1346.25 407.808 1351.43 407.834 1351.18 404.503C1350.77 398.978 1351.15 393.318 1351.27 387.788C1351.46 379.721 1351.7 371.656 1352 363.591C1352.11 360.483 1352.22 357.387 1352.38 354.287C1352.56 350.955 1347.37 350.964 1347.2 354.287H1347.2Z" fill="#211715"/>
<path d="M1320.94 403.295C1321.59 405.826 1323.94 407.465 1326.14 408.605C1327.45 409.347 1328.85 409.929 1330.3 410.339C1331.7 410.63 1333.12 410.811 1334.54 410.879C1340.08 411.437 1345.62 409.847 1350.03 406.44C1350.51 405.952 1350.78 405.294 1350.78 404.608C1350.78 403.922 1350.51 403.263 1350.03 402.776C1349.53 402.305 1348.88 402.042 1348.19 402.042C1347.51 402.042 1346.86 402.305 1346.36 402.776C1343.16 405.072 1339.23 406.128 1335.31 405.745C1333.31 405.733 1331.34 405.31 1329.51 404.505C1328.53 404.084 1327.61 403.553 1326.75 402.922C1326.49 402.704 1326.25 402.469 1326.03 402.219C1326.14 402.348 1326.11 402.288 1325.94 402.037C1326.02 402.251 1326.02 402.212 1325.93 401.922C1325.1 398.696 1320.11 400.063 1320.94 403.299V403.295Z" fill="#211715"/>
<path d="M1350.4 405.704C1353.71 406.529 1357.13 406.792 1360.52 406.481C1364.06 406.509 1367.58 405.852 1370.87 404.549C1371.45 404.198 1371.88 403.63 1372.06 402.967C1372.23 402.303 1372.14 401.599 1371.8 401.004C1371.44 400.422 1370.87 400.001 1370.21 399.828C1369.55 399.655 1368.85 399.744 1368.25 400.075C1367.79 400.291 1368.86 399.872 1368.34 400.043C1368.21 400.083 1368.09 400.133 1367.96 400.172C1367.66 400.276 1367.35 400.364 1367.04 400.446C1366.33 400.633 1365.6 400.775 1364.87 400.894C1364.69 400.924 1364.5 400.949 1364.32 400.977C1364.01 401.026 1364.74 400.931 1364.23 400.991C1363.8 401.04 1363.37 401.089 1362.94 401.129C1362.06 401.216 1361.17 401.275 1360.28 401.307C1358.59 401.382 1356.9 401.366 1355.21 401.26C1354.86 401.237 1354.51 401.208 1354.16 401.173C1353.96 401.153 1353.76 401.124 1353.56 401.106C1354.26 401.17 1353.63 401.115 1353.5 401.094C1352.91 401.005 1352.34 400.875 1351.78 400.706C1351.45 400.616 1351.11 400.591 1350.77 400.633C1350.43 400.675 1350.11 400.783 1349.81 400.951C1349.51 401.119 1349.25 401.343 1349.04 401.612C1348.84 401.88 1348.68 402.187 1348.59 402.515C1348.5 402.843 1348.48 403.186 1348.52 403.524C1348.56 403.861 1348.67 404.187 1348.84 404.483C1349 404.779 1349.23 405.039 1349.5 405.248C1349.77 405.457 1350.07 405.611 1350.4 405.701V405.704Z" fill="#211715"/>
<path d="M1324.84 401.967C1323.82 401.54 1322.7 401.365 1321.59 401.457C1320.49 401.549 1319.42 401.906 1318.48 402.497C1317.4 403.156 1316.5 404.067 1315.85 405.152C1315.21 406.237 1314.83 407.463 1314.77 408.724C1314.48 411.252 1314.91 413.808 1316.01 416.103C1317.1 418.399 1318.82 420.34 1320.97 421.707C1325.79 424.827 1331.37 426.593 1337.11 426.821C1342.57 427.096 1348.48 425.939 1350.95 420.448C1353.06 415.731 1352.21 410.168 1351.09 405.313C1350.34 402.066 1345.35 403.44 1346.1 406.69C1346.72 409.156 1347.04 411.692 1347.04 414.238C1347.04 415 1346.97 415.76 1346.81 416.507C1346.73 416.859 1346.65 417.209 1346.54 417.554C1346.51 417.661 1346.13 418.572 1346.38 418.035C1344.16 422.828 1337.36 422.031 1333.07 421.092C1328.86 420.17 1323.27 418.397 1320.91 414.457C1319.88 412.68 1319.56 410.578 1320.01 408.575C1320.05 408.209 1320.19 407.859 1320.41 407.561C1320.63 407.263 1320.92 407.028 1321.25 406.877C1321.6 406.717 1322.02 406.712 1322.36 406.558C1322.52 406.484 1322.71 406.672 1322.23 406.441C1325.22 407.876 1327.85 403.41 1324.84 401.967Z" fill="#211715"/>
<path d="M1368.27 403.006C1368.37 404.957 1368.65 406.895 1369.1 408.796C1369.16 409.054 1369.21 409.317 1369.23 409.582C1369.23 408.901 1369.21 409.429 1369.23 409.609C1369.27 409.978 1369.28 410.349 1369.26 410.719C1369.25 411.032 1369.22 411.345 1369.2 411.657C1369.15 412.264 1369.27 411.389 1369.16 411.942C1369.09 412.267 1369.03 412.589 1368.94 412.912C1368.92 413.008 1368.67 413.737 1368.76 413.526C1368.84 413.314 1368.5 413.978 1368.46 414.063C1368.29 414.307 1368.29 414.319 1368.46 414.098C1368.39 414.187 1368.32 414.273 1368.24 414.357C1368.06 414.553 1367.86 414.737 1367.66 414.908C1368.06 414.567 1367.43 415.037 1367.34 415.102C1367.1 415.243 1366.86 415.361 1366.62 415.49C1366.34 415.616 1366.33 415.62 1366.59 415.503C1366.48 415.546 1366.37 415.585 1366.25 415.621C1365.73 415.785 1365.2 415.915 1364.66 416.01C1364.47 416.039 1364.5 416.034 1364.77 415.994C1364.58 416.015 1364.38 416.033 1364.19 416.05C1363.86 416.076 1363.54 416.098 1363.22 416.112C1362.62 416.138 1362.01 416.139 1361.41 416.112C1361.12 416.097 1360.83 416.067 1360.54 416.046C1360.23 416.01 1360.21 416.01 1360.48 416.046C1360.35 416.028 1360.23 416.01 1360.1 415.989C1359.44 415.882 1358.78 415.742 1358.12 415.588C1357.46 415.405 1356.75 415.493 1356.15 415.832C1355.56 416.172 1355.12 416.734 1354.93 417.397C1354.75 418.059 1354.84 418.767 1355.18 419.365C1355.52 419.962 1356.08 420.4 1356.74 420.583C1362.11 421.838 1369.77 422.021 1372.99 416.581C1374.23 414.29 1374.7 411.663 1374.34 409.083C1374.18 407.823 1373.95 406.578 1373.72 405.327C1373.67 405.054 1373.63 404.781 1373.58 404.506C1373.56 404.376 1373.54 404.247 1373.52 404.117C1373.48 403.82 1373.48 403.863 1373.53 404.247C1373.44 403.844 1373.41 403.427 1373.45 403.014C1373.45 402.327 1373.18 401.668 1372.69 401.182C1372.21 400.696 1371.55 400.424 1370.86 400.424C1370.17 400.424 1369.51 400.696 1369.03 401.182C1368.54 401.668 1368.27 402.327 1368.27 403.014L1368.27 403.006Z" fill="#211715"/>
<path d="M1316.42 311.839C1316.42 314.719 1316.51 317.596 1316.58 320.476C1316.66 323.616 1317.63 327.295 1320.17 329.358C1322.35 331.132 1325.35 331.637 1328.03 332.151C1331.94 332.935 1335.91 333.389 1339.89 333.508C1348.15 333.688 1356.46 332.377 1364.57 330.967C1367.64 330.436 1371.31 329.524 1373.14 326.784C1375.26 323.614 1374.67 319.005 1374.79 315.386C1375.33 299.599 1376.07 283.766 1372.96 268.174C1371.58 261.241 1369.3 253.633 1363 249.596C1356.9 245.69 1349.23 247.537 1342.64 248.845C1338.3 249.583 1334.07 250.838 1330.03 252.583C1325.89 254.521 1322.36 257.544 1319.81 261.33C1316.07 266.814 1312.87 272.7 1309.35 278.33C1307.58 281.166 1312.06 283.769 1313.82 280.945C1316.75 276.261 1319.6 271.533 1322.48 266.827C1323.89 264.292 1325.69 262 1327.83 260.039C1330.53 257.892 1333.66 256.34 1337.01 255.487C1340.5 254.467 1344.09 253.824 1347.65 253.14C1350.57 252.431 1353.59 252.252 1356.56 252.611C1362.51 253.659 1365.36 259.338 1366.83 264.663C1370.54 278.05 1370.37 292.25 1369.94 306.006C1369.82 309.85 1369.67 313.695 1369.55 317.533C1369.47 319.93 1370.2 323.656 1367.54 324.818C1364.52 326.133 1360.92 326.354 1357.71 326.844C1354.11 327.394 1350.49 327.881 1346.86 328.14C1342.94 328.443 1339 328.41 1335.09 328.039C1331.59 327.776 1328.13 327.107 1324.78 326.045C1323.99 325.833 1323.32 325.331 1322.88 324.64C1322.18 323.429 1321.79 322.057 1321.77 320.656C1321.66 317.72 1321.6 314.782 1321.61 311.841C1321.61 308.507 1316.43 308.502 1316.43 311.841L1316.42 311.839Z" fill="#211715"/>
<path d="M1358.42 250.666C1359.84 248.617 1361.47 246.715 1363.27 244.988C1365.26 242.839 1367.09 240.539 1368.74 238.11C1372.09 233.015 1373.92 227.069 1374.01 220.97C1373.97 215.77 1372.62 210.665 1370.07 206.129C1367.53 201.593 1363.88 197.774 1359.47 195.028C1350.44 189.408 1338.93 189.588 1329.6 194.416C1324.58 197.097 1320.35 201.039 1317.32 205.854C1314.29 210.669 1312.56 216.191 1312.32 221.874C1311.7 234.716 1319.91 249.591 1334.32 249.154C1337.65 249.053 1337.66 243.873 1334.32 243.974C1323.65 244.298 1317.68 233.462 1317.47 224.002C1317.35 219.183 1318.48 214.415 1320.78 210.173C1323.07 205.932 1326.43 202.365 1330.53 199.828C1338.01 195.314 1347.73 194.469 1355.51 198.714C1359.23 200.736 1362.38 203.646 1364.69 207.185C1367.01 210.723 1368.41 214.78 1368.78 218.992C1369.11 224.924 1367.48 230.8 1364.13 235.709C1362.53 237.998 1360.76 240.162 1358.83 242.185C1357.01 243.967 1355.37 245.931 1353.95 248.048C1352.25 250.928 1356.73 253.537 1358.42 250.662L1358.42 250.666Z" fill="#211715"/>
<path d="M1312.12 276.59C1309.38 274.769 1306.29 271.381 1302.72 271.995C1299.67 272.521 1298.08 275.613 1296.37 277.902C1294.35 280.623 1292.36 283.363 1290.38 286.123C1288.58 288.647 1286.42 291.253 1288 294.491C1288.74 295.713 1289.7 296.787 1290.83 297.659C1292 298.738 1293.18 299.807 1294.37 300.857C1296.66 302.928 1299.07 304.853 1301.6 306.62C1304.23 308.516 1307.44 309.426 1310.67 309.188C1313.96 308.794 1317.12 307.657 1319.91 305.864C1326.19 301.978 1330.71 295.927 1334.99 290.037C1335.33 289.442 1335.42 288.738 1335.25 288.074C1335.08 287.411 1334.65 286.843 1334.06 286.493C1333.46 286.161 1332.76 286.073 1332.1 286.246C1331.44 286.419 1330.87 286.84 1330.52 287.422C1327.59 291.761 1324.14 295.731 1320.26 299.243C1316.75 302.206 1311.22 305.43 1306.52 303.5C1304.59 302.554 1302.81 301.338 1301.21 299.89C1299.2 298.251 1297.25 296.523 1295.34 294.769C1294.48 294.097 1293.67 293.353 1292.94 292.547C1292.34 291.77 1292.98 291.381 1293.52 290.622C1295.04 288.469 1296.58 286.331 1298.13 284.206C1299.03 282.973 1299.94 281.743 1300.85 280.517C1301.53 279.425 1302.3 278.394 1303.16 277.438C1303.44 277.179 1303.45 277.084 1303.82 277.078C1303.83 277.078 1304.9 277.846 1305.2 278.06C1306.63 279.074 1308.05 280.094 1309.51 281.064C1312.29 282.917 1314.89 278.432 1312.12 276.59H1312.12Z" fill="#211715"/>
<path d="M1320.65 207.836C1323.37 209.281 1325.97 210.926 1328.45 212.757L1327.25 211.209C1328.01 213.783 1328.64 216.39 1329.54 218.921C1329.63 219.249 1329.79 219.556 1330 219.824C1330.2 220.093 1330.46 220.318 1330.76 220.486C1331.06 220.654 1331.38 220.762 1331.72 220.804C1332.06 220.846 1332.4 220.821 1332.73 220.73C1333.06 220.64 1333.36 220.486 1333.63 220.277C1333.9 220.068 1334.12 219.808 1334.29 219.512C1334.46 219.216 1334.57 218.89 1334.61 218.552C1334.65 218.215 1334.63 217.872 1334.54 217.544C1334 216.029 1333.55 214.479 1333.11 212.931C1332.92 212.248 1332.73 211.565 1332.55 210.883C1332.42 209.968 1331.99 209.123 1331.32 208.487C1328.8 206.541 1326.1 204.825 1323.27 203.361C1322.97 203.189 1322.65 203.077 1322.31 203.031C1321.97 202.984 1321.63 203.005 1321.3 203.091C1320.97 203.178 1320.66 203.328 1320.39 203.534C1320.12 203.739 1319.89 203.996 1319.72 204.29C1319.55 204.584 1319.44 204.908 1319.39 205.245C1319.35 205.583 1319.37 205.925 1319.45 206.255C1319.54 206.584 1319.69 206.893 1319.9 207.164C1320.1 207.435 1320.36 207.663 1320.65 207.834L1320.65 207.836Z" fill="#211715"/>
<path d="M1333.35 221.035C1333.57 220.869 1333.81 220.718 1334.06 220.583C1334.28 220.463 1334.62 220.378 1334.2 220.505C1334.46 220.423 1334.73 220.356 1335 220.277C1335.56 220.109 1334.59 220.269 1335.14 220.247C1335.42 220.236 1335.7 220.217 1335.98 220.228C1336.24 220.237 1336.58 220.286 1336.13 220.215C1336.62 220.302 1337.1 220.425 1337.57 220.584C1337.85 220.69 1337.84 220.684 1337.54 220.566C1337.67 220.625 1337.8 220.688 1337.93 220.755C1338.12 220.855 1338.31 220.962 1338.49 221.079C1338.6 221.155 1338.72 221.235 1338.84 221.32C1338.59 221.131 1338.58 221.131 1338.81 221.32C1338.96 221.47 1339.12 221.607 1339.27 221.764C1339.36 221.867 1339.46 221.974 1339.55 222.084C1339.38 221.87 1339.39 221.885 1339.56 222.127C1339.68 222.329 1339.82 222.515 1339.93 222.727C1340 222.865 1340.07 223.003 1340.14 223.145C1340.04 222.885 1340.04 222.895 1340.15 223.172C1340.24 223.431 1340.33 223.69 1340.4 223.949C1340.47 224.208 1340.53 224.482 1340.58 224.752C1340.47 224.187 1340.59 224.994 1340.6 225.12C1340.62 225.397 1340.62 225.673 1340.61 225.95C1340.61 226.035 1340.56 226.841 1340.59 226.555C1340.61 226.268 1340.5 227.061 1340.47 227.151C1340.41 227.422 1340.35 227.691 1340.26 227.957C1340.18 228.224 1340.09 228.486 1339.98 228.742C1340.19 228.255 1339.85 228.988 1339.8 229.08C1339.67 229.317 1339.54 229.55 1339.39 229.776C1339.3 229.905 1339.22 230.035 1339.13 230.158C1339.28 229.972 1339.29 229.95 1339.18 230.092C1338.83 230.5 1338.45 230.882 1338.04 231.237C1337.9 231.353 1337.92 231.334 1338.11 231.181C1337.98 231.269 1337.86 231.353 1337.73 231.44C1337.51 231.58 1337.27 231.693 1337.04 231.82C1336.87 231.899 1336.9 231.884 1337.14 231.778C1337 231.83 1336.85 231.877 1336.71 231.919C1336.42 232 1336.12 232.061 1335.82 232.102C1335.16 232.285 1334.59 232.723 1334.25 233.32C1333.91 233.918 1333.82 234.625 1334.01 235.288C1334.2 235.94 1334.65 236.49 1335.24 236.827C1335.83 237.164 1336.53 237.262 1337.19 237.101C1342.26 236.364 1345.41 231.176 1345.77 226.436C1346 224.022 1345.39 221.603 1344.03 219.591C1342.68 217.579 1340.67 216.1 1338.34 215.405C1337.07 215.034 1335.73 214.946 1334.41 215.148C1333.1 215.349 1331.84 215.834 1330.74 216.57C1330.16 216.928 1329.74 217.496 1329.56 218.156C1329.39 218.816 1329.48 219.517 1329.81 220.114C1330.16 220.701 1330.73 221.128 1331.39 221.302C1332.05 221.475 1332.76 221.383 1333.35 221.044L1333.35 221.035Z" fill="#211715"/>
<path d="M1336.94 236.103C1338.17 238.97 1339.67 241.707 1341.44 244.273C1343.22 247.021 1345.26 249.59 1347.53 251.942C1347.77 252.189 1348.06 252.386 1348.37 252.522C1348.69 252.658 1349.03 252.729 1349.37 252.732C1349.72 252.735 1350.06 252.67 1350.37 252.54C1350.69 252.409 1350.98 252.217 1351.23 251.974C1351.47 251.73 1351.66 251.441 1351.79 251.123C1351.92 250.805 1351.99 250.463 1351.98 250.12C1351.98 249.776 1351.91 249.436 1351.77 249.12C1351.64 248.804 1351.44 248.518 1351.19 248.279C1350.23 247.302 1349.32 246.271 1348.47 245.19C1348.43 245.138 1347.99 244.569 1348.34 245.031C1348.23 244.885 1348.12 244.739 1348.01 244.593C1347.76 244.266 1347.52 243.937 1347.28 243.606C1346.82 242.964 1346.37 242.317 1345.93 241.663C1345.07 240.392 1344.26 239.096 1343.51 237.766C1343.17 237.169 1342.84 236.567 1342.54 235.953C1342.4 235.687 1342.27 235.419 1342.15 235.15C1342.08 234.997 1342.01 234.844 1341.94 234.691C1341.73 234.233 1342.15 235.209 1341.95 234.729C1341.76 234.075 1341.31 233.523 1340.72 233.185C1340.13 232.848 1339.43 232.751 1338.77 232.915C1338.11 233.103 1337.55 233.542 1337.21 234.138C1336.87 234.733 1336.78 235.439 1336.95 236.102L1336.94 236.103Z" fill="#211715"/>
<path d="M1320.34 218.864C1319.96 216.398 1320.42 213.875 1321.64 211.7C1322.7 209.518 1324.09 207.514 1325.76 205.762C1329.49 202.063 1333.94 199.17 1338.83 197.263C1339.48 197.062 1340.03 196.62 1340.37 196.028C1340.7 195.436 1340.8 194.738 1340.64 194.076C1340.46 193.415 1340.02 192.853 1339.42 192.514C1338.83 192.174 1338.12 192.084 1337.46 192.262C1331.58 194.739 1325.88 197.882 1321.56 202.678C1317.46 207.235 1313.8 213.937 1315.35 220.237C1316.14 223.475 1321.14 222.102 1320.34 218.86L1320.34 218.864Z" fill="#211715"/>
<path d="M1372.74 222.202C1372.74 222.476 1372.68 222.748 1372.57 222.999C1372.46 223.251 1372.3 223.476 1372.1 223.66C1368.93 226.674 1365.34 229.222 1361.46 231.23C1355.19 234.117 1348.36 235.581 1341.46 235.517C1336.55 235.427 1331.68 234.644 1326.99 233.193C1322.62 231.554 1318.56 229.183 1314.98 226.181C1314.48 225.78 1314.08 225.273 1313.81 224.697C1313.53 224.121 1313.39 223.49 1313.39 222.851V218.101C1313.39 217.754 1313.48 217.413 1313.66 217.113C1313.83 216.814 1314.08 216.565 1314.38 216.394C1314.69 216.223 1315.03 216.135 1315.37 216.139C1315.72 216.143 1316.06 216.239 1316.36 216.417C1319.55 218.33 1323.09 220.932 1327 222.39C1331.86 224.177 1336.99 225.113 1342.16 225.156C1347.6 224.958 1352.93 223.581 1357.78 221.122C1361.13 219.606 1364.32 217.03 1367.45 214.868C1367.97 214.534 1368.58 214.347 1369.19 214.327C1369.81 214.307 1370.43 214.455 1370.97 214.754C1371.51 215.054 1371.96 215.495 1372.27 216.03C1372.58 216.565 1372.74 217.174 1372.74 217.793V222.202Z" fill="#2D0E37"/>
<path d="M1370.14 222.202C1370.19 221.796 1370.55 221.737 1369.93 222.125C1369.75 222.264 1369.57 222.416 1369.41 222.581C1368.99 222.95 1368.57 223.315 1368.14 223.678C1367.25 224.429 1366.34 225.158 1365.4 225.84C1363.35 227.346 1361.13 228.609 1358.79 229.604C1354.4 231.414 1349.76 232.515 1345.03 232.865C1340.86 233.119 1336.68 232.826 1332.59 231.996C1327.51 230.96 1322.73 228.809 1318.58 225.699C1317.38 224.826 1316.05 224.115 1315.98 222.523C1315.93 221.228 1316.1 219.908 1315.98 218.62C1315.92 217.955 1315.98 218.132 1315.58 218.685C1315.37 218.97 1314.47 218.11 1315.49 218.913C1315.71 219.062 1315.93 219.2 1316.16 219.326C1316.77 219.706 1317.37 220.093 1317.97 220.478C1320.19 221.948 1322.52 223.235 1324.94 224.327C1334.04 228.313 1344.29 228.759 1353.7 225.577C1356.33 224.679 1358.88 223.543 1361.32 222.183C1362.66 221.406 1363.93 220.524 1365.2 219.628C1365.84 219.176 1366.47 218.721 1367.11 218.264C1367.66 217.761 1368.28 217.333 1368.94 216.991C1370.87 216.377 1370.14 221.18 1370.14 222.202C1370.14 225.535 1375.32 225.541 1375.32 222.202C1375.32 218.834 1375.86 215.034 1372.71 212.809C1371.67 212.091 1370.43 211.719 1369.17 211.745C1367.91 211.771 1366.68 212.193 1365.67 212.953C1363.11 214.692 1360.7 216.649 1357.97 218.133C1352.95 220.973 1347.29 222.495 1341.53 222.558C1335.96 222.547 1330.46 221.287 1325.44 218.87C1322.82 217.521 1320.45 215.755 1317.88 214.31C1317.3 213.938 1316.64 213.701 1315.95 213.619C1315.26 213.537 1314.56 213.61 1313.9 213.834C1313.25 214.058 1312.65 214.426 1312.15 214.912C1311.66 215.398 1311.28 215.989 1311.04 216.641C1310.73 218.111 1310.65 219.619 1310.8 221.114C1310.6 223.019 1311 224.937 1311.93 226.61C1313.36 228.756 1316.09 230.348 1318.22 231.72C1320.75 233.361 1323.46 234.694 1326.3 235.688C1331.61 237.4 1337.17 238.226 1342.75 238.132C1348.91 238.05 1354.99 236.779 1360.66 234.389C1363.75 233.096 1366.65 231.403 1369.29 229.355C1371.76 227.468 1374.99 225.524 1375.32 222.202C1375.32 221.516 1375.05 220.86 1374.56 220.375C1374.08 219.89 1373.42 219.616 1372.73 219.611C1372.05 219.626 1371.4 219.904 1370.92 220.386C1370.44 220.869 1370.16 221.519 1370.14 222.202Z" fill="#211715"/>
<path d="M1337.13 190.118C1334.09 188.355 1331.12 186.307 1327.47 187.618C1325.89 188.303 1324.37 189.126 1322.93 190.079L1318.07 192.884L1308.27 198.551L1303.63 201.23C1301.76 202.158 1299.96 203.241 1298.27 204.468C1295.87 206.478 1295.89 209.236 1295.89 212.101C1295.89 214.966 1295.89 217.799 1295.89 220.649C1295.89 223.206 1295.42 226.372 1296.49 228.755C1297.57 231.171 1299.96 232.238 1302.13 233.497C1306.22 235.873 1310.31 238.248 1314.41 240.621C1317.3 242.289 1319.91 237.814 1317.02 236.147C1314.11 234.466 1311.2 232.778 1308.29 231.083L1302.86 227.933C1302.15 227.515 1301.29 227.202 1301.09 226.31C1300.98 225.309 1300.97 224.3 1301.07 223.298C1301.07 220.831 1301.07 218.366 1301.07 215.901V212.518C1300.98 211.483 1300.99 210.443 1301.08 209.409C1301.3 208.235 1302.54 207.855 1303.48 207.309L1308.16 204.6L1316.76 199.629L1326.04 194.266C1327.21 193.591 1328.72 192.295 1330.13 192.367C1331.59 192.442 1333.28 193.885 1334.51 194.599C1337.39 196.283 1340.01 191.804 1337.12 190.125L1337.13 190.118Z" fill="#211715"/>
</g>
</g>
<defs>
<clipPath id="clip0_85_309">
<rect width="1472.71" height="434" fill="white" transform="translate(0.645508)"/>
</clipPath>
<clipPath id="clip1_85_309">
<rect width="500" height="500" fill="white" transform="translate(938 -15)"/>
</clipPath>
</defs>
</svg>
